<?xml version="1.0" encoding="UTF-8" standalone="no"?>
<!DOCTYPE svg PUBLIC "-//W3C//DTD SVG 1.1//EN" "http://www.w3.org/Graphics/SVG/1.1/DTD/svg11.dtd">
<svg width="100%" height="100%" viewBox="0 0 500 500" version="1.1" xmlns="http://www.w3.org/2000/svg" xmlns:xlink="http://www.w3.org/1999/xlink" xml:space="preserve" xmlns:serif="http://www.serif.com/" style="fill-rule:evenodd;clip-rule:evenodd;stroke-linejoin:round;stroke-miterlimit:2;">
    <g transform="matrix(0.903305,0,0,0.903305,234.091,245.736)">
        <g id="_001-maintenance.svg" serif:id="001-maintenance.svg" transform="matrix(1,0,0,1,-256,-256)">
            <g transform="matrix(1.09365,0,0,1.09365,-24.0678,-24.5261)">
                <path d="M203.954,74.165C173.269,101.489 93.14,150.174 84.9,199.075C76.659,247.976 136.512,321.057 154.511,367.573C168.593,403.966 154.945,482.833 192.895,478.17C230.845,473.508 357.055,383.62 382.211,339.598C403.925,301.599 338.839,247.217 343.827,214.038C348.8,180.959 424.607,170.341 412.137,140.524C399.668,110.706 303.709,46.191 269.011,35.131C244.916,27.451 222.841,57.347 203.954,74.165Z" style="fill:rgb(255,223,196);"/>
                <g transform="matrix(-1,0,0,1,511.329,0)">
                    <path d="M410.432,252.078L387.414,252.078C384.054,238.105 378.48,224.97 371.096,213.08L388.199,196.127C392.042,192.32 392.042,186.151 388.199,182.354L357.554,151.997C353.721,148.19 347.493,148.19 343.65,151.997L326.537,168.94C314.535,161.625 301.275,156.103 287.17,152.775L287.17,128.849C287.17,123.453 282.796,119.079 277.4,119.079L233.94,119.079C228.544,119.079 224.17,123.453 224.17,128.849L224.17,151.834C210.197,155.194 197.062,160.768 185.172,168.152L168.219,151.049C164.412,147.206 158.243,147.206 154.446,151.049L124.089,181.694C120.282,185.527 120.282,191.755 124.089,195.598L141.032,212.711C133.717,224.713 128.195,237.973 124.867,252.079L100.941,252.079C95.545,252.079 91.171,256.453 91.171,261.849L91.171,305.309C91.171,310.705 95.545,315.079 100.941,315.079L123.926,315.079C127.286,329.052 132.86,342.187 140.244,354.077L123.141,371.03C119.298,374.837 119.298,381.006 123.141,384.803L153.786,415.16C157.619,418.967 163.847,418.967 167.69,415.16L184.803,398.217C196.805,405.532 210.065,411.054 224.17,414.382L224.17,438.308C224.17,443.704 228.544,448.078 233.94,448.078L277.4,448.078C282.796,448.078 287.17,443.704 287.17,438.308L287.17,415.323C301.143,411.963 314.278,406.389 326.168,399.005L343.121,416.108C346.928,419.951 353.097,419.951 356.894,416.108L387.251,385.463C391.058,381.63 391.058,375.402 387.251,371.559L370.308,354.446C377.623,342.444 383.145,329.184 386.473,315.079L410.399,315.079C415.795,315.079 420.169,310.705 420.169,305.309L420.169,261.908C420.169,256.474 415.814,252.078 410.432,252.078ZM256,381.748C201.65,381.748 157.58,337.678 157.58,283.328C157.58,228.978 201.65,184.908 256,184.908C310.35,184.908 354.42,228.978 354.42,283.328C354.42,337.678 310.35,381.748 256,381.748Z" style="fill:white;fill-rule:nonzero;"/>
                    <path d="M321.79,356.518C316.76,361.038 311.27,365.048 305.4,368.468C298.31,372.588 290.65,375.858 282.57,378.108C276.28,379.878 269.73,381.028 263,381.498C265.43,342.198 278.38,312.198 293.98,312.198C306.06,312.198 316.54,330.168 321.79,356.518Z" style="fill:rgb(255,199,153);fill-rule:nonzero;"/>
                    <path d="M282.169,352.078L282.169,378.358C290.309,376.108 298.026,372.838 305.169,368.718L305.169,352.078C305.169,349.316 302.931,347.078 300.169,347.078L287.169,347.078C284.407,347.078 282.169,349.316 282.169,352.078Z" style="fill:white;fill-rule:nonzero;"/>
                    <path d="M182.169,187.532L182.169,347.915C195.532,363.409 213.621,374.639 234.169,379.322L234.169,187.421C234.169,182.28 236.929,177.591 241.318,174.913C259.681,163.708 272.186,143.543 272.667,120.562C273.355,87.781 250.028,60.353 219.22,54.984C215.163,54.277 212.056,58.568 213.975,62.245L233.747,100.143C236.296,105.029 234.438,111.076 229.598,113.65L189.892,134.76C185.051,137.334 179.059,135.459 176.509,130.573L157.43,94.022C155.462,90.251 150.045,90.544 148.445,94.488C145.356,102.098 143.654,110.424 143.654,119.151C143.654,142.87 156.219,163.609 174.99,174.991C179.4,177.665 182.169,182.374 182.169,187.532Z" style="fill:white;fill-rule:nonzero;"/>
                    <path d="M305.17,319.078L282.169,319.078L282.169,198.183C282.169,194.293 283.123,190.463 284.946,187.027L290.549,176.47C291.877,173.969 295.46,173.969 296.787,176.47L302.391,187.027C304.215,190.463 305.168,194.293 305.168,198.183L305.168,319.078L305.17,319.078Z" style="fill:rgb(255,199,153);fill-rule:nonzero;"/>
                    <path d="M311.498,328.078L276.672,328.078C271.799,328.078 267.372,324.848 266.267,320.103C264.661,313.208 269.851,307.078 276.473,307.078L311.299,307.078C316.171,307.078 320.599,310.308 321.704,315.053C323.31,321.948 318.12,328.078 311.498,328.078Z" style="fill:white;fill-rule:nonzero;"/>
                    <path d="M204.169,332.833L204.169,226.487C204.169,224.085 205.778,221.877 208.133,221.405C211.348,220.76 214.169,223.2 214.169,226.301L214.169,332.646C214.169,335.048 212.56,337.256 210.205,337.729C206.99,338.374 204.169,335.933 204.169,332.833Z" style="fill:rgb(255,117,2);fill-rule:nonzero;"/>
                    <path d="M410.449,247.078L390.242,247.078C387.108,235.405 382.47,224.218 376.419,213.727L390.676,199.469C396.438,193.709 396.438,184.336 390.676,178.575L385.214,173.113C383.016,170.913 379.274,171.191 377.467,173.947C376.16,175.941 376.572,178.612 378.257,180.298L383.51,185.551C384.149,186.19 384.654,186.971 384.863,187.85C385.264,189.543 384.778,191.224 383.604,192.397L366.594,209.407C364.956,211.044 364.657,213.591 365.87,215.563C373.067,227.26 378.323,239.945 381.492,253.269C382.024,255.504 384.02,257.079 386.318,257.079L410.433,257.079C413.048,257.079 415.167,259.199 415.167,261.813L415.167,305.306C415.167,307.941 413.03,310.078 410.395,310.078L386.462,310.078C384.146,310.078 382.135,311.666 381.598,313.918C378.438,327.181 373.204,339.808 366.04,351.451C364.831,353.416 365.129,355.955 366.762,357.585L383.712,374.535C385.567,376.39 385.567,379.409 383.713,381.263L353.46,411.515C352.817,412.158 352.031,412.67 351.146,412.879C349.463,413.276 347.794,412.789 346.626,411.622L329.675,394.672C328.045,393.04 325.505,392.742 323.541,393.95C311.901,401.112 299.273,406.346 286.008,409.508C283.756,410.045 282.168,412.056 282.168,414.372L282.168,438.304C282.168,440.94 280.031,443.077 277.395,443.077L233.941,443.077C231.305,443.077 229.168,440.94 229.168,438.304L229.168,414.372C229.168,412.057 227.58,410.045 225.328,409.508C212.064,406.346 199.435,401.112 187.795,393.95C185.829,392.741 183.29,393.039 181.661,394.672L164.812,411.518C164.168,412.162 163.38,412.674 162.493,412.881C160.811,413.274 159.147,412.786 157.981,411.622L127.622,381.263C125.768,379.408 125.768,376.39 127.622,374.535L144.573,357.585C146.205,355.953 146.503,353.415 145.294,351.451C138.13,339.808 132.896,327.181 129.736,313.918C129.199,311.665 127.188,310.078 124.872,310.078L100.939,310.078C98.303,310.078 96.167,307.941 96.167,305.306L96.167,261.85C96.167,259.215 98.303,257.078 100.939,257.078L125.19,257.078C127.503,257.078 129.513,255.494 130.052,253.245C133.241,239.933 138.527,227.259 145.763,215.572C146.983,213.6 146.683,211.054 145.034,209.418L128.027,192.517C127.38,191.874 126.865,191.088 126.654,190.201C126.252,188.512 126.742,186.833 127.921,185.661L152.24,161.494C157.608,168.53 164.374,174.611 172.333,179.36C175.36,181.165 177.166,184.26 177.166,187.642L177.166,216.97C161.492,235.541 152.857,259.107 152.857,283.387C152.857,340.405 199.54,386.793 256.918,386.789C314.865,386.785 362.183,339.045 360.941,281.111C360.184,245.785 341.822,213.923 311.457,195.327C311.049,191.783 309.984,188.318 308.308,185.157L302.725,174.632C301.237,171.822 298.327,170.078 295.132,170.078L293.838,170.078C290.673,170.078 287.768,171.83 286.292,174.63L281.738,183.268C273.319,181.099 264.623,179.985 255.848,179.985C251.138,179.985 246.429,180.311 241.78,180.943C242.391,180.31 243.089,179.742 243.877,179.266C263.844,167.197 276.365,146.577 277.807,123.681C280.242,123.896 282.166,125.923 282.166,128.412L282.166,152.454C282.166,154.77 283.754,156.781 286.007,157.318C299.323,160.489 311.999,165.743 323.687,172.932C324.498,173.43 325.404,173.673 326.305,173.673C327.598,173.673 328.878,173.173 329.843,172.208L346.854,155.2C348.717,153.34 351.747,153.342 353.606,155.2L358.738,160.331C360.929,162.524 364.654,162.255 366.468,159.524C367.798,157.522 367.372,154.823 365.672,153.123L360.677,148.129C354.917,142.368 345.543,142.366 339.781,148.129L325.52,162.388C315.03,156.336 303.84,151.7 292.165,148.565L292.165,127.783C292.165,119.705 285.715,113.126 277.723,112.949C276.574,98.481 271.03,84.67 261.74,73.456C251.073,60.58 236.203,51.929 219.87,49.094C216.08,48.433 212.324,49.969 210.063,53.095C207.808,56.215 207.516,60.273 209.303,63.687L229.253,101.782C230.059,103.321 230.03,105.147 229.118,106.722C228.638,107.55 227.884,108.186 227.038,108.635L187.097,129.79C185.916,130.414 184.566,130.542 183.288,130.145C182.013,129.747 180.968,128.873 180.346,127.687L161.099,90.945C159.27,87.453 155.705,85.411 151.785,85.592C147.851,85.782 144.48,88.18 142.985,91.85C139.53,100.332 137.778,109.313 137.778,118.547C137.778,130.676 140.788,142.238 146.319,152.405L120.642,178.224C114.883,184.014 114.883,193.434 120.642,199.224L134.893,213.555C128.843,224.099 124.209,235.344 121.076,247.076L100.936,247.076C92.778,247.076 86.164,253.69 86.164,261.848L86.164,305.304C86.164,313.462 92.778,320.076 100.936,320.076L120.131,320.076C123.281,331.709 127.942,342.858 134.025,353.313L119.694,367.521C113.905,373.263 113.905,382.603 119.695,388.343L150.313,418.701C153.117,421.483 156.847,423.014 160.814,423.014C164.78,423.014 168.51,421.482 171.313,418.701L185.644,404.494C196.185,410.525 207.431,415.146 219.165,418.269L219.165,438.302C219.165,446.461 225.779,453.075 233.938,453.075L277.392,453.075C285.551,453.075 292.165,446.461 292.165,438.302L292.165,419.11C303.8,415.959 314.948,411.299 325.401,405.217L339.609,419.545C342.39,422.35 346.087,423.895 350.02,423.895C353.954,423.895 357.651,422.35 360.431,419.545L390.79,388.927C396.531,383.138 396.531,373.718 390.79,367.927L376.582,353.598C382.614,343.055 387.234,331.809 390.358,320.077L410.393,320.077C418.551,320.077 425.165,313.463 425.165,305.305L425.165,261.928C425.173,253.739 418.568,247.078 410.449,247.078ZM177.169,233.908L177.169,332.718C168.201,318.38 163.009,301.45 163.009,283.329C163.009,265.779 167.982,248.65 177.169,233.908ZM311.621,312.078C315.05,312.078 317.757,315.233 316.991,318.793C316.444,321.336 314.075,323.078 311.474,323.078L276.496,323.078C273.895,323.078 271.526,321.336 270.979,318.793C270.212,315.233 272.919,312.078 276.348,312.078L311.621,312.078ZM278.556,333.078L309.401,333.078C312.132,339.026 314.484,346.35 316.278,354.506C302.99,365.757 286.53,373.368 268.448,375.787C269.98,358.989 273.507,344.048 278.556,333.078ZM349.182,283.04C349.182,307.439 339.775,329.68 324.402,346.336C322.896,340.59 321.131,335.343 319.117,330.658C324.099,327.622 327.245,321.86 326.411,315.446C325.405,307.71 318.529,302.078 310.728,302.078L310.168,302.078L310.168,207.095C334.726,224.632 349.182,252.5 349.182,283.04ZM289.364,189.46L293.668,181.397L297.954,189.427C299.408,192.15 300.168,195.19 300.168,198.277L300.168,302.078L287.168,302.078L287.168,198.225C287.169,195.182 287.928,192.151 289.364,189.46ZM153.17,96.064L172.204,132.617C176.017,139.935 185.001,142.753 192.235,138.896L231.853,117.786C239.086,113.932 241.873,104.844 238.063,97.525L218.354,59.623C232.194,62.041 244.8,69.422 253.847,80.406C263.008,91.529 267.886,105.65 267.582,120.169C267.15,140.788 256.349,159.546 238.686,170.347C232.727,173.992 229.168,180.288 229.168,187.191L229.168,348.435C229.168,350.839 230.779,353.048 233.136,353.519C236.35,354.161 239.168,351.722 239.168,348.622L239.168,191.125C244.626,190.128 250.206,189.623 255.792,189.623C263.244,189.623 270.632,190.516 277.8,192.278C277.391,194.231 277.169,196.225 277.169,198.225L277.169,302.078L276.579,302.078C268.768,302.078 261.876,307.725 260.894,315.474C260.082,321.876 263.189,327.625 268.106,330.657C262.944,342.809 259.396,358.777 257.946,376.426C257.178,376.445 256.407,376.456 255.635,376.456C228.51,376.456 204.08,364.564 187.17,345.664L187.17,187.284C187.17,180.461 183.512,174.002 177.625,170.427C159.539,159.443 148.742,140.167 148.742,118.864C148.739,110.984 150.224,103.323 153.17,96.064Z" style="fill:rgb(255,117,2);fill-rule:nonzero;"/>
                    <g transform="matrix(-1,0,0,1,511.329,0)">
                        <circle cx="161.179" cy="108.808" r="10.572" style="fill:rgb(255,199,153);"/>
                    </g>
                    <g transform="matrix(-1,0,0,1,288.183,-48.1423)">
                        <circle cx="161.179" cy="108.808" r="10.572" style="fill:rgb(255,199,153);"/>
                    </g>
                    <g transform="matrix(-0.8,0,0,0.8,473.401,371.932)">
                        <circle cx="161.179" cy="108.808" r="10.572" style="fill:rgb(255,199,153);"/>
                    </g>
                    <g transform="matrix(-1.23393,-0.0934242,-0.0934242,1.23393,810.342,350.868)">
                        <path d="M402.871,117.701L406.063,125.77L414.688,128.755L406.063,131.741L402.871,139.81L399.68,131.741L391.054,128.755L399.68,125.77L402.871,117.701Z" style="fill:rgb(255,199,153);"/>
                    </g>
                    <g transform="matrix(-1.22529,0.619101,0.619101,1.22529,514.378,-270.718)">
                        <path d="M402.871,117.701L406.063,125.77L414.688,128.755L406.063,131.741L402.871,139.81L399.68,131.741L391.054,128.755L399.68,125.77L402.871,117.701Z" style="fill:rgb(255,199,153);"/>
                    </g>
                </g>
            </g>
        </g>
        <g id="_001-maintenance.svg1" serif:id="001-maintenance.svg">
        </g>
    </g>
</svg>
