<?xml version="1.0" encoding="UTF-8" standalone="no"?>
<!DOCTYPE svg PUBLIC "-//W3C//DTD SVG 1.1//EN" "http://www.w3.org/Graphics/SVG/1.1/DTD/svg11.dtd">
<svg width="100%" height="100%" viewBox="0 0 500 500" version="1.1" xmlns="http://www.w3.org/2000/svg" xmlns:xlink="http://www.w3.org/1999/xlink" xml:space="preserve" xmlns:serif="http://www.serif.com/" style="fill-rule:evenodd;clip-rule:evenodd;stroke-linecap:round;stroke-linejoin:round;stroke-miterlimit:1.5;">
    <g transform="matrix(0.818717,0,0,0.818717,9.30671,32.5097)">
        <g transform="matrix(1.01317,0.554845,-0.608646,1.11142,-38.9305,-441.362)">
            <path d="M465.83,175.252C424.733,187.561 337.574,233.622 327.647,275.315C317.72,317.008 401.901,387.092 406.269,425.41C409.873,457.034 396.115,530.256 414.904,555.947C434.36,582.551 472.978,585.432 523.009,585.035C573.041,584.638 635.978,539.57 654.045,502.84C672.112,466.111 627.044,401.586 631.411,364.657C635.195,332.668 689.782,308.471 680.252,281.271C670.722,254.071 609.969,219.129 574.232,201.459C540.908,184.982 501.442,164.585 465.83,175.252Z" style="fill:rgb(255,223,196);"/>
        </g>
        <g transform="matrix(1,0,0,1,-210.848,-66.709)">
            <g transform="matrix(1,0,0,1,94.2312,45.4018)">
                <circle cx="346.216" cy="510.164" r="12.508" style="fill:rgb(255,199,153);"/>
            </g>
            <g transform="matrix(1.53333,0,0,1.53333,-252.738,-433.885)">
                <circle cx="346.216" cy="510.164" r="12.508" style="fill:rgb(255,199,153);"/>
            </g>
            <g transform="matrix(1.53333,0,0,1.53333,-110.981,-371.941)">
                <circle cx="346.216" cy="510.164" r="12.508" style="fill:rgb(255,199,153);"/>
            </g>
            <g transform="matrix(1,0,0,1,215.613,-384.768)">
                <circle cx="346.216" cy="510.164" r="12.508" style="fill:rgb(255,199,153);"/>
            </g>
            <g transform="matrix(1.25139,0,0,1.25139,-86.7124,-29.8097)">
                <path d="M402.871,117.701L406.063,125.77L414.688,128.755L406.063,131.741L402.871,139.81L399.68,131.741L391.054,128.755L399.68,125.77L402.871,117.701Z" style="fill:rgb(255,199,153);"/>
            </g>
            <g transform="matrix(1.65194,0,0,1.65194,-353.654,271.584)">
                <path d="M402.871,117.701L406.063,125.77L414.688,128.755L406.063,131.741L402.871,139.81L399.68,131.741L391.054,128.755L399.68,125.77L402.871,117.701Z" style="fill:rgb(255,199,153);"/>
            </g>
        </g>
        <g transform="matrix(1.36798,0,0,1.36798,85.3692,-219.418)">
            <g transform="matrix(1,0,0,1.06026,-254.2,-37.6066)">
                <g transform="matrix(1.00647,0,0,1,-3.18824,-1.82973)">
                    <path d="M552.453,459.173C552.453,455.723 549.502,452.922 545.867,452.922L353.956,452.922C350.322,452.922 347.371,455.723 347.371,459.173L347.371,509.186C347.371,512.636 350.322,515.438 353.956,515.438L545.867,515.438C549.502,515.438 552.453,512.636 552.453,509.186L552.453,459.173Z" style="fill:rgb(255,214,180);stroke:rgb(255,117,2);stroke-width:4px;"/>
                </g>
                <g transform="matrix(0.825806,0,0,1,59.5682,-1.82973)">
                    <path d="M552.453,459.173C552.453,455.723 548.857,452.922 544.427,452.922L355.397,452.922C350.967,452.922 347.371,455.723 347.371,459.173L347.371,509.186C347.371,512.636 350.967,515.438 355.397,515.438L544.427,515.438C548.857,515.438 552.453,512.636 552.453,509.186L552.453,459.173Z" style="fill:white;stroke:rgb(255,117,2);stroke-width:4px;"/>
                </g>
                <g transform="matrix(1.44684,0,0,1.32582,70.1564,-191.615)">
                    <rect x="208.636" y="523.85" width="67.09" height="6.709" style="fill:rgb(255,117,2);stroke:rgb(255,117,2);stroke-width:4px;"/>
                </g>
                <g transform="matrix(1,0,0,1,0,67.1628)">
                    <g transform="matrix(0.889328,0,0,0.889328,61.3695,-10.2903)">
                        <circle cx="481.266" cy="475.688" r="8.002" style="fill:rgb(255,214,180);stroke:rgb(255,117,2);stroke-width:3.42px;"/>
                    </g>
                    <g transform="matrix(1,0,0,1,3.8701,1.89075)">
                        <rect x="457.673" y="410.286" width="20.209" height="1.151" style="fill:rgb(255,214,180);stroke:rgb(255,117,2);stroke-width:2.67px;"/>
                    </g>
                    <g transform="matrix(1.48346,0.691013,-0.453704,0.974005,-18.7205,-287.328)">
                        <rect x="431.641" y="398.605" width="0.625" height="22.484" style="fill:rgb(255,214,180);stroke:rgb(255,214,180);stroke-width:2.67px;"/>
                    </g>
                    <g transform="matrix(1.48346,0.691013,-0.453704,0.974005,-34.4829,-287.328)">
                        <rect x="431.641" y="398.605" width="0.625" height="22.484" style="fill:rgb(255,214,180);stroke:rgb(255,214,180);stroke-width:2.67px;"/>
                    </g>
                    <g transform="matrix(1.48346,0.691013,-0.453704,0.974005,-50.0967,-287.328)">
                        <rect x="431.641" y="398.605" width="0.625" height="22.484" style="fill:rgb(255,214,180);stroke:rgb(255,214,180);stroke-width:2.67px;"/>
                    </g>
                    <g transform="matrix(1.48346,0.691013,-0.453704,0.974005,-65.7104,-287.328)">
                        <rect x="431.641" y="398.605" width="0.625" height="22.484" style="fill:rgb(255,214,180);stroke:rgb(255,214,180);stroke-width:2.67px;"/>
                    </g>
                    <g transform="matrix(1.48346,0.691013,-0.453704,0.974005,-81.6215,-287.328)">
                        <rect x="431.641" y="398.605" width="0.625" height="22.484" style="fill:rgb(255,214,180);stroke:rgb(255,214,180);stroke-width:2.67px;"/>
                    </g>
                </g>
                <g transform="matrix(1.65265,0.0740374,-0.00301683,1.06386,-183.741,15.6921)">
                    <rect x="431.641" y="398.605" width="0.625" height="22.484" style="fill:rgb(255,117,2);stroke:rgb(255,117,2);stroke-width:2.67px;"/>
                </g>
                <g transform="matrix(1.65265,0.0740374,-0.00301683,1.06386,-172.123,15.6921)">
                    <rect x="431.641" y="398.605" width="0.625" height="22.484" style="fill:rgb(255,117,2);stroke:rgb(255,117,2);stroke-width:2.67px;"/>
                </g>
            </g>
            <g transform="matrix(1,0,0,1.06026,-254.2,-107.246)">
                <g transform="matrix(1.00647,0,0,1,-3.18824,-1.82973)">
                    <path d="M552.453,459.173C552.453,455.723 549.502,452.922 545.867,452.922L353.956,452.922C350.322,452.922 347.371,455.723 347.371,459.173L347.371,509.186C347.371,512.636 350.322,515.438 353.956,515.438L545.867,515.438C549.502,515.438 552.453,512.636 552.453,509.186L552.453,459.173Z" style="fill:rgb(255,214,180);stroke:rgb(255,117,2);stroke-width:4px;"/>
                </g>
                <g transform="matrix(0.825806,0,0,1,59.5682,-1.82973)">
                    <path d="M552.453,459.173C552.453,455.723 548.857,452.922 544.427,452.922L355.397,452.922C350.967,452.922 347.371,455.723 347.371,459.173L347.371,509.186C347.371,512.636 350.967,515.438 355.397,515.438L544.427,515.438C548.857,515.438 552.453,512.636 552.453,509.186L552.453,459.173Z" style="fill:white;stroke:rgb(255,117,2);stroke-width:4px;"/>
                </g>
                <g transform="matrix(1.44684,0,0,1.32582,70.1564,-191.615)">
                    <rect x="208.636" y="523.85" width="67.09" height="6.709" style="fill:rgb(255,117,2);stroke:rgb(255,117,2);stroke-width:4px;"/>
                </g>
                <g transform="matrix(1,0,0,1,0,67.1628)">
                    <g transform="matrix(0.889328,0,0,0.889328,61.3695,-10.2903)">
                        <circle cx="481.266" cy="475.688" r="8.002" style="fill:rgb(255,214,180);stroke:rgb(255,117,2);stroke-width:3.42px;"/>
                    </g>
                    <g transform="matrix(1,0,0,1,3.8701,1.89075)">
                        <rect x="457.673" y="410.286" width="20.209" height="1.151" style="fill:rgb(255,214,180);stroke:rgb(255,117,2);stroke-width:2.67px;"/>
                    </g>
                    <g transform="matrix(1.48346,0.691013,-0.453704,0.974005,-18.7205,-287.328)">
                        <rect x="431.641" y="398.605" width="0.625" height="22.484" style="fill:rgb(255,214,180);stroke:rgb(255,214,180);stroke-width:2.67px;"/>
                    </g>
                    <g transform="matrix(1.48346,0.691013,-0.453704,0.974005,-34.4829,-287.328)">
                        <rect x="431.641" y="398.605" width="0.625" height="22.484" style="fill:rgb(255,214,180);stroke:rgb(255,214,180);stroke-width:2.67px;"/>
                    </g>
                    <g transform="matrix(1.48346,0.691013,-0.453704,0.974005,-50.0967,-287.328)">
                        <rect x="431.641" y="398.605" width="0.625" height="22.484" style="fill:rgb(255,214,180);stroke:rgb(255,214,180);stroke-width:2.67px;"/>
                    </g>
                    <g transform="matrix(1.48346,0.691013,-0.453704,0.974005,-65.7104,-287.328)">
                        <rect x="431.641" y="398.605" width="0.625" height="22.484" style="fill:rgb(255,214,180);stroke:rgb(255,214,180);stroke-width:2.67px;"/>
                    </g>
                    <g transform="matrix(1.48346,0.691013,-0.453704,0.974005,-81.6215,-287.328)">
                        <rect x="431.641" y="398.605" width="0.625" height="22.484" style="fill:rgb(255,214,180);stroke:rgb(255,214,180);stroke-width:2.67px;"/>
                    </g>
                </g>
                <g transform="matrix(1.65265,0.0740374,-0.00301683,1.06386,-183.741,15.6921)">
                    <rect x="431.641" y="398.605" width="0.625" height="22.484" style="fill:rgb(255,117,2);stroke:rgb(255,117,2);stroke-width:2.67px;"/>
                </g>
                <g transform="matrix(1.65265,0.0740374,-0.00301683,1.06386,-172.123,15.6921)">
                    <rect x="431.641" y="398.605" width="0.625" height="22.484" style="fill:rgb(255,117,2);stroke:rgb(255,117,2);stroke-width:2.67px;"/>
                </g>
            </g>
            <g transform="matrix(1,0,0,1.06026,-254.2,-177.031)">
                <g transform="matrix(1.00647,0,0,1,-3.18824,-1.82973)">
                    <path d="M552.453,459.173C552.453,455.723 549.502,452.922 545.867,452.922L353.956,452.922C350.322,452.922 347.371,455.723 347.371,459.173L347.371,509.186C347.371,512.636 350.322,515.438 353.956,515.438L545.867,515.438C549.502,515.438 552.453,512.636 552.453,509.186L552.453,459.173Z" style="fill:rgb(255,214,180);stroke:rgb(255,117,2);stroke-width:4px;"/>
                </g>
                <g transform="matrix(0.825806,0,0,1,59.5682,-1.82973)">
                    <path d="M552.453,459.173C552.453,455.723 548.857,452.922 544.427,452.922L355.397,452.922C350.967,452.922 347.371,455.723 347.371,459.173L347.371,509.186C347.371,512.636 350.967,515.438 355.397,515.438L544.427,515.438C548.857,515.438 552.453,512.636 552.453,509.186L552.453,459.173Z" style="fill:white;stroke:rgb(255,117,2);stroke-width:4px;"/>
                </g>
                <g transform="matrix(1.44684,0,0,1.32582,70.1564,-191.615)">
                    <rect x="208.636" y="523.85" width="67.09" height="6.709" style="fill:rgb(255,117,2);stroke:rgb(255,117,2);stroke-width:4px;"/>
                </g>
                <g transform="matrix(1,0,0,1,0,67.1628)">
                    <g transform="matrix(0.889328,0,0,0.889328,61.3695,-10.2903)">
                        <circle cx="481.266" cy="475.688" r="8.002" style="fill:rgb(255,214,180);stroke:rgb(255,117,2);stroke-width:3.42px;"/>
                    </g>
                    <g transform="matrix(1,0,0,1,3.8701,1.89075)">
                        <rect x="457.673" y="410.286" width="20.209" height="1.151" style="fill:rgb(255,214,180);stroke:rgb(255,117,2);stroke-width:2.67px;"/>
                    </g>
                    <g transform="matrix(1.48346,0.691013,-0.453704,0.974005,-18.7205,-287.328)">
                        <rect x="431.641" y="398.605" width="0.625" height="22.484" style="fill:rgb(255,214,180);stroke:rgb(255,214,180);stroke-width:2.67px;"/>
                    </g>
                    <g transform="matrix(1.48346,0.691013,-0.453704,0.974005,-34.4829,-287.328)">
                        <rect x="431.641" y="398.605" width="0.625" height="22.484" style="fill:rgb(255,214,180);stroke:rgb(255,214,180);stroke-width:2.67px;"/>
                    </g>
                    <g transform="matrix(1.48346,0.691013,-0.453704,0.974005,-50.0967,-287.328)">
                        <rect x="431.641" y="398.605" width="0.625" height="22.484" style="fill:rgb(255,214,180);stroke:rgb(255,214,180);stroke-width:2.67px;"/>
                    </g>
                    <g transform="matrix(1.48346,0.691013,-0.453704,0.974005,-65.7104,-287.328)">
                        <rect x="431.641" y="398.605" width="0.625" height="22.484" style="fill:rgb(255,214,180);stroke:rgb(255,214,180);stroke-width:2.67px;"/>
                    </g>
                    <g transform="matrix(1.48346,0.691013,-0.453704,0.974005,-81.6215,-287.328)">
                        <rect x="431.641" y="398.605" width="0.625" height="22.484" style="fill:rgb(255,214,180);stroke:rgb(255,214,180);stroke-width:2.67px;"/>
                    </g>
                </g>
                <g transform="matrix(1.65265,0.0740374,-0.00301683,1.06386,-183.741,15.6921)">
                    <rect x="431.641" y="398.605" width="0.625" height="22.484" style="fill:rgb(255,117,2);stroke:rgb(255,117,2);stroke-width:2.67px;"/>
                </g>
                <g transform="matrix(1.65265,0.0740374,-0.00301683,1.06386,-172.123,15.6921)">
                    <rect x="431.641" y="398.605" width="0.625" height="22.484" style="fill:rgb(255,117,2);stroke:rgb(255,117,2);stroke-width:2.67px;"/>
                </g>
            </g>
            <g transform="matrix(1,0,0,1.06026,-254.2,-246.932)">
                <g transform="matrix(1.00647,0,0,1,-3.18824,-1.82973)">
                    <path d="M552.453,459.173C552.453,455.723 549.502,452.922 545.867,452.922L353.956,452.922C350.322,452.922 347.371,455.723 347.371,459.173L347.371,509.186C347.371,512.636 350.322,515.438 353.956,515.438L545.867,515.438C549.502,515.438 552.453,512.636 552.453,509.186L552.453,459.173Z" style="fill:rgb(255,214,180);stroke:rgb(255,117,2);stroke-width:4px;"/>
                </g>
                <g transform="matrix(0.825806,0,0,1,59.5682,-1.82973)">
                    <path d="M552.453,459.173C552.453,455.723 548.857,452.922 544.427,452.922L355.397,452.922C350.967,452.922 347.371,455.723 347.371,459.173L347.371,509.186C347.371,512.636 350.967,515.438 355.397,515.438L544.427,515.438C548.857,515.438 552.453,512.636 552.453,509.186L552.453,459.173Z" style="fill:white;stroke:rgb(255,117,2);stroke-width:4px;"/>
                </g>
                <g transform="matrix(1.44684,0,0,1.32582,70.1564,-191.615)">
                    <rect x="208.636" y="523.85" width="67.09" height="6.709" style="fill:rgb(255,117,2);stroke:rgb(255,117,2);stroke-width:4px;"/>
                </g>
                <g transform="matrix(1,0,0,1,0,67.1628)">
                    <g transform="matrix(0.889328,0,0,0.889328,61.3695,-10.2903)">
                        <circle cx="481.266" cy="475.688" r="8.002" style="fill:rgb(255,214,180);stroke:rgb(255,117,2);stroke-width:3.42px;"/>
                    </g>
                    <g transform="matrix(1,0,0,1,3.8701,1.89075)">
                        <rect x="457.673" y="410.286" width="20.209" height="1.151" style="fill:rgb(255,214,180);stroke:rgb(255,117,2);stroke-width:2.67px;"/>
                    </g>
                    <g transform="matrix(1.48346,0.691013,-0.453704,0.974005,-18.7205,-287.328)">
                        <rect x="431.641" y="398.605" width="0.625" height="22.484" style="fill:rgb(255,214,180);stroke:rgb(255,214,180);stroke-width:2.67px;"/>
                    </g>
                    <g transform="matrix(1.48346,0.691013,-0.453704,0.974005,-34.4829,-287.328)">
                        <rect x="431.641" y="398.605" width="0.625" height="22.484" style="fill:rgb(255,214,180);stroke:rgb(255,214,180);stroke-width:2.67px;"/>
                    </g>
                    <g transform="matrix(1.48346,0.691013,-0.453704,0.974005,-50.0967,-287.328)">
                        <rect x="431.641" y="398.605" width="0.625" height="22.484" style="fill:rgb(255,214,180);stroke:rgb(255,214,180);stroke-width:2.67px;"/>
                    </g>
                    <g transform="matrix(1.48346,0.691013,-0.453704,0.974005,-65.7104,-287.328)">
                        <rect x="431.641" y="398.605" width="0.625" height="22.484" style="fill:rgb(255,214,180);stroke:rgb(255,214,180);stroke-width:2.67px;"/>
                    </g>
                    <g transform="matrix(1.48346,0.691013,-0.453704,0.974005,-81.6215,-287.328)">
                        <rect x="431.641" y="398.605" width="0.625" height="22.484" style="fill:rgb(255,214,180);stroke:rgb(255,214,180);stroke-width:2.67px;"/>
                    </g>
                </g>
                <g transform="matrix(1.65265,0.0740374,-0.00301683,1.06386,-183.741,15.6921)">
                    <rect x="431.641" y="398.605" width="0.625" height="22.484" style="fill:rgb(255,117,2);stroke:rgb(255,117,2);stroke-width:2.67px;"/>
                </g>
                <g transform="matrix(1.65265,0.0740374,-0.00301683,1.06386,-172.123,15.6921)">
                    <rect x="431.641" y="398.605" width="0.625" height="22.484" style="fill:rgb(255,117,2);stroke:rgb(255,117,2);stroke-width:2.67px;"/>
                </g>
            </g>
            <g transform="matrix(0.776144,0,0,1,-133.129,-6.65733)">
                <path d="M541.349,481.975C573.283,475.588 580.174,423.989 540.845,413.4" style="fill:none;stroke:rgb(255,117,2);stroke-width:4.47px;"/>
            </g>
            <g transform="matrix(0.776144,0,0,1,-133.129,-78.0555)">
                <path d="M541.349,481.975C573.283,475.588 580.174,423.989 540.845,413.4" style="fill:none;stroke:rgb(255,117,2);stroke-width:4.47px;"/>
            </g>
            <g transform="matrix(0.776144,0,0,1,-133.129,-149.308)">
                <path d="M541.349,481.975C573.283,475.588 580.174,423.989 540.845,413.4" style="fill:none;stroke:rgb(255,117,2);stroke-width:4.47px;"/>
            </g>
        </g>
        <g id="_001-security.svg" serif:id="001-security.svg" transform="matrix(1.01781,0,0,1.01781,186.329,209.34)">
            <g transform="matrix(1,0,0,1,-107.135,-107.135)">
                <clipPath id="_clip1">
                    <rect x="0" y="0" width="214.27" height="214.27"/>
                </clipPath>
                <g clip-path="url(#_clip1)">
                    <g>
                        <path d="M30.902,41.112L107.407,11.435L186.091,42.473L183.368,138.037L142.529,190.583L108.224,206.647L44.515,160.634L24.095,105.365L24.912,43.834L30.902,41.112Z" style="fill:white;stroke:black;stroke-width:1px;"/>
                        <path d="M196.926,55.171C196.816,49.386 196.711,43.921 196.711,38.634C196.711,34.492 193.354,31.134 189.211,31.134C157.136,31.134 132.715,21.916 112.359,2.124C109.447,-0.708 104.813,-0.707 101.902,2.124C81.548,21.916 57.131,31.134 25.058,31.134C20.916,31.134 17.558,34.492 17.558,38.634C17.558,43.922 17.454,49.389 17.343,55.175C16.315,109.011 14.907,182.742 104.674,213.857C105.47,214.133 106.3,214.271 107.13,214.271C107.96,214.271 108.791,214.133 109.586,213.857C199.36,182.741 197.954,109.008 196.926,55.171ZM107.131,198.812C30.144,170.845 31.308,109.58 32.341,55.461C32.403,52.213 32.463,49.065 32.505,45.979C62.545,44.711 86.567,35.608 107.131,17.694C127.697,35.608 151.723,44.712 181.765,45.979C181.807,49.064 181.867,52.21 181.929,55.456C182.961,109.577 184.124,170.844 107.131,198.812Z" style="fill:rgb(255,117,2);fill-rule:nonzero;"/>
                        <path d="M132.958,81.082L96.759,117.279L81.312,101.832C78.383,98.904 73.634,98.904 70.706,101.832C67.777,104.762 67.777,109.51 70.706,112.439L91.456,133.189C92.92,134.653 94.84,135.385 96.759,135.385C98.678,135.385 100.598,134.653 102.062,133.189L143.563,91.689C146.493,88.76 146.493,84.011 143.564,81.083C140.636,78.154 135.887,78.153 132.958,81.082Z" style="fill:rgb(255,117,2);fill-rule:nonzero;"/>
                    </g>
                </g>
            </g>
        </g>
    </g>
</svg>
