<svg width="50" height="50" viewBox="0 0 50 50" fill="none" xmlns="http://www.w3.org/2000/svg">
<path d="M31.6356 50.0002C41.778 50.0002 50 42.2726 50 32.7401C50 23.2076 41.778 15.48 31.6356 15.48C21.4933 15.48 13.2712 23.2076 13.2712 32.7401C13.2712 42.2726 21.4933 50.0002 31.6356 50.0002Z" fill="#F4F5F7"/>
<path d="M44.1749 0H38.8419C38.1056 0 37.5086 0.561043 37.5086 1.25307V2.50615H26.5245C25.9741 1.04774 24.4922 0 22.7541 0C21.016 0 19.534 1.04774 18.9836 2.50615H7.99947V1.25307C7.99947 0.561043 7.40254 0 6.66623 0H1.33325C0.596938 0 0 0.561043 0 1.25307V6.26537C0 6.9574 0.596938 7.51844 1.33325 7.51844H6.66623C7.40254 7.51844 7.99947 6.9574 7.99947 6.26537V4.99559H13.5437C8.73374 7.85878 5.80984 12.6957 5.45813 17.8306C3.88757 18.3381 2.75537 19.7396 2.75537 21.3858C2.75537 23.4586 4.54966 25.145 6.75511 25.145C8.96057 25.145 10.7548 23.4586 10.7548 21.3858C10.7548 19.7668 9.66025 18.3836 8.13013 17.8555C8.60352 11.9537 13.1252 6.87069 19.1717 5.42848C19.8271 6.66585 21.1863 7.51844 22.7541 7.51844C24.3219 7.51844 25.681 6.66585 26.3364 5.42856C32.383 6.87077 36.9046 11.9538 37.378 17.8555C35.8479 18.3836 34.7533 19.7668 34.7533 21.3858C34.7533 23.4586 36.5476 25.145 38.753 25.145C40.9585 25.145 42.7527 23.4586 42.7527 21.3858C42.7527 19.7396 41.6206 18.3381 40.05 17.8306C39.6976 12.6854 36.765 7.86989 31.9644 5.01229H37.5086V6.26537C37.5086 6.9574 38.1056 7.51844 38.8419 7.51844H44.1749C44.9112 7.51844 45.5081 6.9574 45.5081 6.26537V1.25307C45.5081 0.561043 44.9112 0 44.1749 0ZM5.33298 5.01229H2.66649V2.50615H5.33298V5.01229ZM6.75511 22.6389C6.01996 22.6389 5.42187 22.0767 5.42187 21.3858C5.42187 20.6948 6.01996 20.1327 6.75511 20.1327C7.49026 20.1327 8.08836 20.6948 8.08836 21.3858C8.08836 22.0767 7.49026 22.6389 6.75511 22.6389ZM22.7541 5.01229C22.0189 5.01229 21.4208 4.45016 21.4208 3.75922C21.4208 3.06828 22.0189 2.50615 22.7541 2.50615C23.4892 2.50615 24.0873 3.06828 24.0873 3.75922C24.0873 4.45016 23.4892 5.01229 22.7541 5.01229ZM38.753 20.1327C39.4882 20.1327 40.0863 20.6948 40.0863 21.3858C40.0863 22.0767 39.4882 22.6389 38.753 22.6389C38.0179 22.6389 37.4198 22.0767 37.4198 21.3858C37.4198 20.6948 38.0179 20.1327 38.753 20.1327ZM42.8416 5.01229H40.1751V2.50615H42.8416V5.01229Z" fill="#444444"/>
<path d="M34.5299 25.7068L23.864 10.67C23.8636 10.6695 23.8632 10.669 23.8628 10.6684C23.859 10.663 23.8548 10.6579 23.8509 10.6527C23.8326 10.6277 23.8133 10.6036 23.7932 10.5802C23.2314 9.92405 22.1616 9.96833 21.6585 10.6527C21.6546 10.6579 21.6504 10.663 21.6466 10.6684C21.6462 10.669 21.6458 10.6694 21.6454 10.67L10.9795 25.7068C10.6269 26.2038 10.6966 26.8656 11.146 27.288C13.806 29.788 15.4991 33.056 15.9603 36.5524C15.7533 36.7097 15.5534 36.8782 15.3639 37.0604C14.1116 38.2644 13.422 39.849 13.422 41.5223C13.422 42.2143 14.0189 42.7754 14.7552 42.7754H30.7542C31.4905 42.7754 32.0874 42.2143 32.0874 41.5223C32.0874 39.849 31.3978 38.2644 30.1456 37.0604C29.956 36.8781 29.7562 36.7097 29.5491 36.5524C30.0102 33.0558 31.7033 29.7878 34.3633 27.288C34.8127 26.8656 34.8825 26.2037 34.5299 25.7068ZM22.7547 25.1488C23.4898 25.1488 24.0879 25.7109 24.0879 26.4019C24.0879 27.0928 23.4898 27.655 22.7547 27.655C22.0195 27.655 21.4214 27.0928 21.4214 26.4019C21.4214 25.7109 22.0195 25.1488 22.7547 25.1488ZM16.3158 40.2692C16.8705 38.7795 18.3743 37.6795 20.0882 37.6795H25.4212C27.1351 37.6795 28.6388 38.7795 29.1936 40.2692H16.3158ZM27.0429 35.3641C26.5184 35.2383 25.9748 35.1734 25.4212 35.1734H20.0882C19.5346 35.1734 18.9909 35.2383 18.4665 35.3642C17.8426 31.9868 16.2221 28.8298 13.7868 26.267L21.4214 15.5037V22.8583C19.8696 23.3755 18.755 24.7684 18.755 26.402C18.755 28.4748 20.5492 30.1612 22.7547 30.1612C24.9601 30.1612 26.7544 28.4748 26.7544 26.402C26.7544 24.7684 25.6397 23.3755 24.0879 22.8583V15.5037L31.7226 26.267C29.2872 28.8295 27.6667 31.9867 27.0429 35.3641Z" fill="#FF7502"/>
</svg>
