<svg width="60" height="60" viewBox="0 0 60 60" fill="none" xmlns="http://www.w3.org/2000/svg">
<path d="M40.8868 59.9998C51.4428 59.9998 60 52.356 60 42.9269C60 33.4978 51.4428 25.854 40.8868 25.854C30.3309 25.854 21.7737 33.4978 21.7737 42.9269C21.7737 52.356 30.3309 59.9998 40.8868 59.9998Z" fill="#F4F5F7"/>
<path d="M9.61694 28.4333H1.41502C0.633457 28.4333 0 28.9992 0 29.6973V41.8765C0 42.5747 0.633457 43.1405 1.41502 43.1405H9.61732C10.3985 43.1405 11.0323 42.5747 11.0323 41.8765V29.6973C11.032 28.9992 10.3985 28.4333 9.61694 28.4333ZM8.2023 40.6126H2.83004V30.9613H8.2023V40.6126Z" fill="#444444"/>
<path d="M24.8352 21.6287H16.6329C15.8514 21.6287 15.2179 22.1945 15.2179 22.8926V41.8795C15.2179 42.5776 15.8514 43.1435 16.6329 43.1435H24.8352C25.6164 43.1435 26.2502 42.5776 26.2502 41.8795V22.8926C26.2502 22.1945 25.6164 21.6287 24.8352 21.6287ZM23.4202 40.6155H18.0479V24.1566H23.4202V40.6155Z" fill="#444444"/>
<path d="M40.0616 11.3435H31.8596C31.078 11.3435 30.4446 11.9093 30.4446 12.6075V41.876C30.4446 42.5741 31.078 43.14 31.8596 43.14H40.0616C40.8432 43.14 41.4766 42.5741 41.4766 41.876V12.6075C41.4766 11.9093 40.8432 11.3435 40.0616 11.3435ZM38.6469 40.612H33.2746V13.8711H38.6469V40.612Z" fill="#444444"/>
<path d="M1.50428 15.8911C1.72615 15.8911 1.95133 15.8444 2.16169 15.7456L16.9405 8.80371L22.8231 11.5278C23.2451 11.7233 23.7488 11.7164 24.1637 11.5094L37.2693 4.97683L36.7651 6.16513C36.4881 6.81785 36.8558 7.54758 37.5865 7.79515C37.7516 7.85077 37.9211 7.87739 38.0877 7.87739C38.6589 7.87739 39.1969 7.56637 39.4113 7.06112L41.2847 2.64607C41.3552 2.48023 41.3879 2.27977 41.3721 2.10037C41.3585 1.91996 41.3024 1.73963 41.1974 1.57135C40.956 1.18491 40.5216 0.956557 40.0621 0.927233L34.9919 0.0246723C34.2258 -0.111921 33.4804 0.332407 33.3279 1.01706C33.1749 1.70171 33.6724 2.36732 34.4388 2.50391L35.901 2.76395L23.4496 8.97056L17.5872 6.25563C17.1764 6.06536 16.6871 6.06671 16.2776 6.25926L0.844311 13.508C0.15265 13.8332 -0.112996 14.5972 0.250664 15.215C0.503858 15.6453 0.995436 15.8911 1.50428 15.8911Z" fill="#FF7502"/>
</svg>
