<svg id="SvgjsSvg1018" width="288" height="288" xmlns="http://www.w3.org/2000/svg" version="1.1" xmlns:xlink="http://www.w3.org/1999/xlink" xmlns:svgjs="http://svgjs.com/svgjs"><defs id="SvgjsDefs1019"></defs><g id="SvgjsG1020"><svg xmlns="http://www.w3.org/2000/svg" viewBox="0 0 50 50" width="288" height="288"><path fill="#ff7502" d="M36.1 12H13.9c-1.1 0-1.9.8-1.9 1.9v22.2c0 1 .9 1.9 1.9 1.9h22.2c1.1 0 1.9-.8 1.9-1.9V13.9c0-1.1-.9-1.9-1.9-1.9zM20 34h-4V22h4v12zm-2-13.6c-1.3 0-2.4-1.1-2.4-2.4 0-1.3 1.1-2.4 2.4-2.4 1.3 0 2.4 1.1 2.4 2.4 0 1.3-1.1 2.4-2.4 2.4zM34 34h-4v-6c0-1.6-.4-3.2-2-3.2s-2 1.6-2 3.2v6h-4V22h4v1.4h.2c.5-1 1.8-1.8 3.3-1.8 3.7 0 4.5 2.4 4.5 5.4v7z" class="color231F20 svgShape"></path></svg></g></svg>