<svg width="60" height="50" viewBox="0 0 60 50" fill="none" xmlns="http://www.w3.org/2000/svg">
<path d="M41.7612 49.9998C51.8342 49.9998 59.9999 41.5011 59.9999 31.0175C59.9999 20.5338 51.8342 12.0352 41.7612 12.0352C31.6883 12.0352 23.5226 20.5338 23.5226 31.0175C23.5226 41.5011 31.6883 49.9998 41.7612 49.9998Z" fill="#F4F5F7"/>
<rect x="1" y="1" width="50.1397" height="26.5609" rx="1" stroke="#444444" stroke-width="2"/>
<path d="M8.29828 18.5249H5V22.5673H8.29828V18.5249Z" fill="#444444"/>
<path d="M19.1139 12.4528H14.9966V10.5697C14.9966 9.9169 14.9523 9.46495 14.8637 9.23898C14.7752 9.013 14.5981 8.88746 14.3325 8.88746C14.089 8.88746 13.9119 8.98789 13.8233 9.18876C13.7569 9.38963 13.7127 9.86669 13.7127 10.5697V18.2529C13.7127 18.8304 13.7569 19.2572 13.8898 19.5585C14.0226 19.8347 14.2218 19.9854 14.4653 19.9854C14.7752 19.9854 14.9744 19.8347 15.063 19.5334C15.1737 19.2321 15.2179 18.6546 15.2179 17.826V15.8676H19.1139C19.1139 17.1732 19.0696 18.1524 19.0032 18.8053C18.9147 19.4581 18.6712 20.1109 18.2727 20.7888C17.8521 21.4919 17.3209 21.994 16.6789 22.3455C16.0148 22.6971 15.2179 22.8728 14.2439 22.8728C13.0043 22.8728 12.0303 22.6217 11.322 22.1447C10.5915 21.6676 10.0823 20.9897 9.79457 20.136C9.48466 19.2823 9.32971 18.052 9.32971 16.4702V11.8502C9.32971 10.4693 9.46253 9.41474 9.70603 8.7117C9.94952 8.00867 10.4808 7.38096 11.2777 6.82858C12.0746 6.27619 13.0486 6 14.1997 6C15.3286 6 16.3026 6.27619 17.0995 6.82858C17.9185 7.38096 18.4498 8.05888 18.7154 8.91257C18.9811 9.74114 19.1139 10.9212 19.1139 12.4528Z" fill="#444444"/>
<path d="M30.2808 12.026V15.9931C30.2808 17.4745 30.2365 18.5291 30.1037 19.207C29.9709 19.91 29.6831 20.5377 29.2625 21.1403C28.842 21.7178 28.2885 22.1698 27.6245 22.446C26.9604 22.7222 26.1856 22.8728 25.3223 22.8728C24.3705 22.8728 23.5514 22.7473 22.8652 22.4962C22.2011 22.2702 21.692 21.8936 21.3157 21.4165C20.9394 20.9144 20.6737 20.3369 20.5188 19.6589C20.3638 18.9559 20.2753 17.9265 20.2753 16.5455V12.3775C20.2753 10.871 20.4302 9.66582 20.718 8.83724C21.0058 7.98356 21.5149 7.30563 22.2675 6.77836C23.0201 6.27619 23.972 6 25.1452 6C26.1192 6 26.9604 6.17576 27.6687 6.50217C28.3771 6.82858 28.9084 7.25542 29.3068 7.8078C29.6831 8.33508 29.9488 8.88746 30.0816 9.43984C30.2144 10.0173 30.2808 10.871 30.2808 12.026ZM25.92 10.7957C25.92 9.96712 25.8757 9.43984 25.8093 9.21387C25.7208 8.98789 25.5658 8.88746 25.3002 8.88746C25.0345 8.88746 24.8574 8.98789 24.7689 9.21387C24.7025 9.43984 24.6582 9.96712 24.6582 10.7957V18.1273C24.6582 18.9057 24.7025 19.4079 24.7689 19.6338C24.8574 19.8598 25.0345 19.9854 25.278 19.9854C25.5437 19.9854 25.7208 19.8849 25.8093 19.6589C25.8757 19.4581 25.92 19.0061 25.92 18.3031V10.7957Z" fill="#444444"/>
<path d="M36.0484 6.3013L35.982 7.85802C36.314 7.23031 36.7124 6.77836 37.1773 6.47706C37.6422 6.15065 38.1734 6 38.7932 6C39.9443 6 40.874 6.62771 41.5381 7.85802C41.9144 7.23031 42.3129 6.77836 42.7777 6.47706C43.2426 6.15065 43.7517 6 44.3273 6C45.0578 6 45.6776 6.20087 46.1646 6.62771C46.6516 7.02944 46.9615 7.53161 47.0943 8.13421C47.2271 8.7117 47.2935 9.66582 47.2935 11.0217V22.5715H43.0655V11.9758C43.0655 10.5697 43.0212 9.71604 42.9327 9.38963C42.8663 9.06322 42.6671 8.88746 42.3572 8.88746C42.0473 8.88746 41.848 9.06322 41.7595 9.38963C41.6709 9.71604 41.6267 10.5697 41.6267 11.9758V22.5715H37.3987V12.2269C37.3987 10.645 37.3544 9.69093 37.288 9.36452C37.2216 9.03811 37.0223 8.88746 36.7124 8.88746C36.5132 8.88746 36.3583 8.96279 36.2254 9.13854C36.0926 9.3143 36.0041 9.51517 36.0041 9.76625C35.982 9.99223 35.982 10.5195 35.982 11.2979V22.5715H31.7318V6.3013H36.0484Z" fill="#444444"/>
<path d="M4.84847 29.077L16.2304 24.9259C16.6235 24.8488 16.9876 25.4448 16.8495 25.8779L12.5138 39.4807C12.4168 39.7851 12.1344 39.8882 11.8834 39.7108C11.7652 39.6273 11.6694 39.492 11.6298 39.3667L10.1215 35.3554L6.59099 39.3008C6.53089 39.3682 6.44898 39.3969 6.36266 39.3809C6.32091 39.372 6.2799 39.3539 6.24171 39.3269C6.20109 39.2982 6.16376 39.2591 6.13187 39.2124L4.50332 36.8179C4.37465 36.6298 4.37198 36.363 4.49754 36.2229L7.9157 32.4017L4.87126 30.2499C4.62028 30.0725 4.49534 29.6815 4.59237 29.3771C4.62073 29.2881 4.68214 29.1675 4.84847 29.077Z" fill="#FF7502"/>
</svg>
