<svg width="50" height="50" viewBox="0 0 50 50" fill="none" xmlns="http://www.w3.org/2000/svg">
<path d="M31.9807 50C41.9325 50 50 42.3652 50 32.9472C50 23.5291 41.9325 15.8943 31.9807 15.8943C22.0288 15.8943 13.9613 23.5291 13.9613 32.9472C13.9613 42.3652 22.0288 50 31.9807 50Z" fill="#F4F5F7"/>
<path d="M3.27025 26.2368C2.87927 24.7345 2.68105 23.1917 2.68105 21.6512C2.68105 11.1117 11.7415 2.53725 22.8783 2.53725C29.1381 2.53725 35.0354 5.33008 38.8323 9.96301L36.5902 9.77728C35.851 9.71732 35.2024 10.2325 35.1378 10.9305C35.0733 11.6285 35.6189 12.2438 36.3565 12.305L41.4136 12.7237C41.4534 12.7269 41.4929 12.7286 41.532 12.7286C42.2195 12.7286 42.8048 12.2308 42.866 11.5705L43.3084 6.7846C43.3729 6.0866 42.8274 5.47132 42.0898 5.41017C41.3519 5.34945 40.702 5.86544 40.6375 6.56344L40.5146 7.89262C38.818 5.94325 36.7709 4.27712 34.4661 2.98879C30.9681 1.03351 26.9612 0 22.8783 0C16.7673 0 11.0221 2.25215 6.70084 6.34143C2.37979 10.4308 0 15.8679 0 21.6512C0 23.396 0.224404 25.1429 0.667045 26.8436C0.817631 27.4221 1.3651 27.8092 1.96762 27.8092C2.07379 27.8092 2.18166 27.7971 2.28926 27.772C3.00805 27.6045 3.44729 26.9172 3.27025 26.2368Z" fill="#444444"/>
<path d="M45.0874 16.4615C44.9103 15.7812 44.1837 15.3652 43.4652 15.533C42.7463 15.7005 42.3071 16.3878 42.4841 17.0682C42.8751 18.5705 43.0733 20.1134 43.0733 21.6539C43.0733 32.1934 34.0129 40.7678 22.8761 40.7678C16.6163 40.7678 10.719 37.975 6.92208 33.3421L9.16424 33.5278C9.90198 33.5878 10.5519 33.0724 10.6166 32.3745C10.6811 31.6765 10.1355 31.0612 9.39794 31.0001L4.34076 30.5814C3.6016 30.5217 2.95305 31.0366 2.88844 31.7346L2.44598 36.5206C2.38145 37.2186 2.92705 37.8338 3.6646 37.895C3.70437 37.8982 3.74387 37.8999 3.78302 37.8999C4.47044 37.8999 5.0558 37.4021 5.11693 36.7418L5.24026 35.4076C6.93647 37.3588 8.98229 39.0274 11.2883 40.3164C14.7863 42.2716 18.7932 43.3051 22.8761 43.3051C28.9871 43.3051 34.7323 41.0529 39.0536 36.9636C43.3746 32.8742 45.7544 27.4371 45.7544 21.6539C45.7544 19.9091 45.53 18.1621 45.0874 16.4615Z" fill="#444444"/>
<path d="M32.2125 24.2857H29.2269C28.792 24.2857 28.4394 24.5256 28.4394 24.8214V27.0914H20.4V21.4286H25.9125C26.3474 21.4286 26.7 21.1887 26.7 20.8929V19.1071C26.7 18.8113 26.3474 18.5714 25.9125 18.5714H20.4V15.7341C20.4 14.2937 22.0119 13.1856 24.4551 13.1856C26.0077 13.1856 27.4658 13.6992 28.2385 14.0271C28.5765 14.1705 29.0187 14.1187 29.268 13.9072L31.1379 12.3218C31.4157 12.0863 31.3531 11.7413 30.9988 11.5593C29.9238 11.0071 27.5253 10 24.333 10C18.958 10 15.15 12.3546 15.15 15.6233V18.5714H13.3125C12.8776 18.5714 12.525 18.8113 12.525 19.1071V20.8929C12.525 21.1887 12.8776 21.4286 13.3125 21.4286H15.15V27.1429H12.7875C12.3526 27.1429 12 27.3827 12 27.6786V29.4643C12 29.7601 12.3526 30 12.7875 30H32.2125C32.6474 30 33 29.7601 33 29.4643V24.8214C33 24.5256 32.6474 24.2857 32.2125 24.2857Z" fill="#FF7502"/>
</svg>
