<?xml version="1.0" encoding="UTF-8" standalone="no"?>
<!DOCTYPE svg PUBLIC "-//W3C//DTD SVG 1.1//EN" "http://www.w3.org/Graphics/SVG/1.1/DTD/svg11.dtd">
<svg width="100%" height="100%" viewBox="0 0 500 500" version="1.1" xmlns="http://www.w3.org/2000/svg" xmlns:xlink="http://www.w3.org/1999/xlink" xml:space="preserve" xmlns:serif="http://www.serif.com/" style="fill-rule:evenodd;clip-rule:evenodd;stroke-linejoin:round;stroke-miterlimit:2;">
    <g transform="matrix(0.921155,0,0,0.921155,234.091,245.736)">
        <g id="_002-paper-plane.svg" serif:id="002-paper-plane.svg" transform="matrix(1,0,0,1,-256,-256)">
            <g transform="matrix(1.12489,0,0,1.12489,-41.7204,-20.7032)">
                <g transform="matrix(1,0,0,1,5.85515,5.20457)">
                    <path d="M222.17,29.926C181.647,19.085 156.005,177.489 103.699,190.041C24.214,209.114 111.356,279.204 120.681,322.684C128.616,359.681 124.151,390.668 147.355,398.801C170.558,406.933 211.436,383.512 259.903,371.476C306.275,359.961 374.729,377.982 403.029,363.67C427.569,351.259 426.45,296.661 429.703,285.601C432.956,274.541 423.755,232.372 416.041,206.882C406.065,173.92 393.271,113.742 369.85,87.827C347.249,62.819 295.36,61.479 275.517,51.395C265.264,46.184 230.238,32.084 222.17,29.926Z" style="fill:rgb(255,223,196);"/>
                </g>
                <g>
                    <g>
                        <g>
                            <g>
                                <path d="M448.693,98.123L194.084,223.442L187.744,253.432L204.533,370.119L448.693,98.123Z" style="fill:white;fill-rule:nonzero;"/>
                                <path d="M227.217,290.269L204.533,370.119L251.206,318.126L227.217,290.269Z" style="fill:white;fill-rule:nonzero;"/>
                                <path d="M448.695,98.122L315.215,392.443L227.215,290.273L448.695,98.122Z" style="fill:white;fill-rule:nonzero;"/>
                            </g>
                            <g>
                                <path d="M297.096,313.363C295.016,315.173 291.856,314.963 290.036,312.883L251.726,269.013L259.276,262.463L297.566,306.303C299.385,308.383 299.175,311.543 297.096,313.363Z" style="fill:rgb(255,117,2);fill-rule:nonzero;"/>
                            </g>
                            <g>
                                <path d="M312.666,296.693C310.586,298.513 307.426,298.293 305.606,296.213L268.866,254.143L276.416,247.583L313.136,289.633C314.955,291.713 314.745,294.872 312.666,296.693Z" style="fill:rgb(255,117,2);fill-rule:nonzero;"/>
                            </g>
                            <g>
                                <path d="M328.235,280.023C326.155,281.843 322.995,281.633 321.175,279.553L286.005,239.273L293.555,232.713L328.715,272.973C330.525,275.053 330.315,278.213 328.235,280.023Z" style="fill:rgb(255,117,2);fill-rule:nonzero;"/>
                            </g>
                            <g>
                                <path d="M343.805,263.363C341.725,265.173 338.565,264.963 336.745,262.883L303.145,224.403L310.695,217.853L344.285,256.303C346.096,258.383 345.885,261.543 343.805,263.363Z" style="fill:rgb(255,117,2);fill-rule:nonzero;"/>
                            </g>
                            <g>
                                <path d="M359.375,246.693C357.295,248.513 354.135,248.293 352.325,246.213L320.285,209.533L327.835,202.973L359.855,239.633C361.666,241.713 361.455,244.872 359.375,246.693Z" style="fill:rgb(255,117,2);fill-rule:nonzero;"/>
                            </g>
                            <g>
                                <path d="M368.615,195.723C366.535,197.543 363.375,197.323 361.555,195.243L350.865,183.003L358.415,176.443L369.095,188.673C370.906,190.753 370.695,193.903 368.615,195.723Z" style="fill:rgb(255,117,2);fill-rule:nonzero;"/>
                            </g>
                            <path d="M187.744,252.765L448.693,98.123L88.578,186.863L187.744,252.765Z" style="fill:white;fill-rule:nonzero;"/>
                        </g>
                        <g>
                            <g>
                                <g>
                                    <path d="M242.678,177.649L187.745,177.649C153.057,177.649 124.937,149.529 124.937,114.842C124.937,80.154 153.057,52.035 187.745,52.035C222.433,52.035 250.552,80.155 250.552,114.842L250.552,169.776C250.552,174.123 247.026,177.649 242.678,177.649Z" style="fill:rgb(255,199,153);fill-rule:nonzero;"/>
                                </g>
                            </g>
                            <g>
                                <circle cx="216.476" cy="114.841" r="9.33" style="fill:rgb(255,117,2);"/>
                                <circle cx="187.744" cy="114.841" r="9.33" style="fill:rgb(255,117,2);"/>
                                <circle cx="159.013" cy="114.841" r="9.33" style="fill:rgb(255,117,2);"/>
                            </g>
                        </g>
                    </g>
                </g>
                <g>
                    <path d="M453.676,97.845C453.574,94.801 450.435,92.493 447.497,93.268L255.552,140.568L255.552,114.841C255.552,77.451 225.133,47.032 187.744,47.032C150.355,47.032 119.936,77.451 119.936,114.841C119.936,136.205 129.878,155.281 145.367,167.719L87.381,182.008C85.455,182.483 83.992,184.05 83.652,186.004C83.312,187.958 84.158,189.929 85.81,191.026L154.99,237.001L103.465,293.805C101.61,295.851 101.764,299.013 103.809,300.867C104.766,301.736 105.969,302.164 107.167,302.164C108.528,302.164 109.885,301.611 110.872,300.523L163.413,242.599L183.006,255.62L199.583,370.83C200.091,374.953 205.614,376.583 208.291,373.415L250.642,325.128L288.212,368.747L212.148,452.604C210.293,454.65 210.447,457.812 212.492,459.666C213.45,460.535 214.652,460.963 215.85,460.963C217.211,460.963 218.568,460.41 219.555,459.322L294.787,376.381L311.428,395.702C313.669,398.457 318.401,397.768 319.77,394.505L338.457,353.3C339.598,350.784 338.483,347.821 335.968,346.681C333.452,345.54 330.49,346.655 329.349,349.169L313.895,383.245L234.253,290.779L434.689,116.886L343.229,318.561C342.088,321.077 343.203,324.04 345.718,325.18C348.232,326.319 351.196,325.205 352.337,322.692L453.244,100.186C453.549,99.446 453.721,98.65 453.676,97.845ZM156.874,175.183C166.141,179.943 176.629,182.648 187.744,182.648L197.503,182.648C200.264,182.648 202.503,180.41 202.503,177.648C202.503,174.886 200.264,172.648 197.503,172.648L187.744,172.648C155.869,172.648 129.936,146.716 129.936,114.841C129.936,82.965 155.869,57.032 187.744,57.032C219.619,57.032 245.552,82.965 245.552,114.841L245.552,169.774C245.552,171.359 244.263,172.648 242.678,172.648L231.164,172.648C228.403,172.648 226.164,174.886 226.164,177.648C226.164,180.41 228.403,182.648 231.164,182.648L242.678,182.648C249.777,182.648 255.552,176.873 255.552,169.774L255.552,150.866L417.03,111.074L187.896,246.863L100.82,188.996L156.874,175.183ZM244.053,317.478L215.407,350.139L229.489,300.569L244.053,317.478ZM223.995,286.445C223.233,287.118 222.678,287.99 222.389,288.965L206.138,346.17L193.08,255.415L403.479,130.729L223.995,286.445Z" style="fill:rgb(255,117,2);fill-rule:nonzero;"/>
                    <path d="M227.483,399.738C225.437,397.881 222.275,398.036 220.42,400.082L165.722,460.385C163.867,462.431 164.021,465.593 166.066,467.447C168.105,469.299 171.269,469.153 173.129,467.103L227.827,406.8C229.683,404.755 229.529,401.593 227.483,399.738Z" style="fill:rgb(255,117,2);fill-rule:nonzero;"/>
                    <path d="M170.744,315.27C168.698,313.413 165.536,313.568 163.681,315.614L70.911,417.89C69.056,419.936 69.21,423.098 71.255,424.952C72.212,425.821 73.415,426.249 74.613,426.249C75.974,426.249 77.331,425.696 78.318,424.608L171.087,322.333C172.943,320.287 172.789,317.125 170.744,315.27Z" style="fill:rgb(255,117,2);fill-rule:nonzero;"/>
                    <path d="M154.669,359.365L143.962,371.169C142.107,373.214 142.261,376.376 144.306,378.231C145.263,379.1 146.466,379.528 147.664,379.528C149.025,379.528 150.382,378.975 151.369,377.887L162.076,366.083C163.931,364.038 163.777,360.876 161.732,359.021C159.686,357.164 156.524,357.319 154.669,359.365Z" style="fill:rgb(255,117,2);fill-rule:nonzero;"/>
                    <path d="M86.928,284.135L97.635,272.33C99.49,270.284 99.336,267.122 97.291,265.268C95.245,263.411 92.083,263.566 90.228,265.612L79.52,277.416C77.665,279.462 77.819,282.624 79.864,284.478C80.822,285.347 82.024,285.775 83.222,285.775C84.584,285.775 85.941,285.223 86.928,284.135Z" style="fill:rgb(255,117,2);fill-rule:nonzero;"/>
                </g>
                <g transform="matrix(1.01169,1.02403,-1.02403,1.01169,-123.818,-134.405)">
                    <path d="M402.871,117.701L406.063,125.77L414.688,128.755L406.063,131.741L402.871,139.81L399.68,131.741L391.054,128.755L399.68,125.77L402.871,117.701Z" style="fill:rgb(255,199,153);"/>
                </g>
                <g transform="matrix(1.08843,0.159631,-0.159631,1.08843,-67.5692,-113.645)">
                    <path d="M402.871,117.701L406.063,125.77L414.688,128.755L406.063,131.741L402.871,139.81L399.68,131.741L391.054,128.755L399.68,125.77L402.871,117.701Z" style="fill:rgb(255,199,153);"/>
                </g>
                <g transform="matrix(1.09694,-0.0830522,0.0830522,1.09694,-366.374,48.0867)">
                    <path d="M402.871,117.701L406.063,125.77L414.688,128.755L406.063,131.741L402.871,139.81L399.68,131.741L391.054,128.755L399.68,125.77L402.871,117.701Z" style="fill:rgb(255,199,153);"/>
                </g>
                <g transform="matrix(0.710526,0,0,0.710526,81.3129,34.4118)">
                    <circle cx="479.797" cy="439.136" r="12.361" style="fill:rgb(255,199,153);"/>
                </g>
                <g transform="matrix(0.921053,0,0,0.921053,-36.6118,-100.976)">
                    <circle cx="479.797" cy="439.136" r="12.361" style="fill:rgb(255,199,153);"/>
                </g>
                <g transform="matrix(0.486842,0,0,0.486842,50.552,-115.716)">
                    <circle cx="479.797" cy="439.136" r="12.361" style="fill:rgb(255,199,153);"/>
                </g>
            </g>
        </g>
        <g id="_002-paper-plane.svg1" serif:id="002-paper-plane.svg">
        </g>
    </g>
</svg>
