<?xml version="1.0" encoding="UTF-8" standalone="no"?>
<!DOCTYPE svg PUBLIC "-//W3C//DTD SVG 1.1//EN" "http://www.w3.org/Graphics/SVG/1.1/DTD/svg11.dtd">
<svg width="100%" height="100%" viewBox="0 0 500 500" version="1.1" xmlns="http://www.w3.org/2000/svg" xmlns:xlink="http://www.w3.org/1999/xlink" xml:space="preserve" xmlns:serif="http://www.serif.com/" style="fill-rule:evenodd;clip-rule:evenodd;stroke-linejoin:round;stroke-miterlimit:2;">
    <g transform="matrix(0.925854,0,0,0.925854,245.526,248.278)">
        <g id="_003-app-design.svg" serif:id="003-app-design.svg" transform="matrix(1,0,0,1,-256,-256)">
            <g transform="matrix(1.08763,0,0,1.08763,-35.0727,-21.4422)">
                <g transform="matrix(1.01835,-0.174105,0.17543,1.0261,-41.1053,46.2026)">
                    <path d="M226.724,53.347C184.329,82.08 65.708,182.811 49.769,241.362C33.83,299.914 98.236,367.898 131.09,404.656C159.786,436.761 207.966,462.557 246.892,461.906C285.818,461.255 328.029,425.56 364.645,400.752C401.294,375.922 450.196,342.851 466.785,312.925C481.616,286.172 481.993,246.064 464.183,221.194C440.112,187.582 349.032,136.62 322.358,111.248C311.238,100.67 317.271,76.91 304.142,68.961C288.203,59.31 248.516,38.577 226.724,53.347Z" style="fill:rgb(255,223,196);"/>
                </g>
                <g>
                    <g transform="matrix(1.30122,0,0,1.30122,-393.972,249.252)">
                        <path d="M402.871,117.701L406.063,125.77L414.688,128.755L406.063,131.741L402.871,139.81L399.68,131.741L391.054,128.755L399.68,125.77L402.871,117.701Z" style="fill:rgb(255,199,153);"/>
                    </g>
                    <g transform="matrix(1.21504,-0.465664,0.465664,1.21504,-86.1177,220.25)">
                        <path d="M402.871,117.701L406.063,125.77L414.688,128.755L406.063,131.741L402.871,139.81L399.68,131.741L391.054,128.755L399.68,125.77L402.871,117.701Z" style="fill:rgb(255,199,153);"/>
                    </g>
                    <g transform="matrix(1,0,0,1,-39.0343,-8.45743)">
                        <circle cx="427.751" cy="416.366" r="7.156" style="fill:rgb(255,199,153);"/>
                    </g>
                    <g transform="matrix(1,0,0,1,42.2872,17.5654)">
                        <circle cx="55.787" cy="48.956" r="6.668" style="fill:rgb(255,199,153);"/>
                    </g>
                    <g transform="matrix(1.41463,0,0,1.41463,200.828,-1.59469)">
                        <circle cx="55.787" cy="48.956" r="6.668" style="fill:rgb(255,199,153);"/>
                    </g>
                    <circle cx="53.51" cy="140.361" r="14.15" style="fill:rgb(255,199,153);"/>
                </g>
                <g transform="matrix(0.85953,0,0,0.85953,27.2508,20.1367)">
                    <g>
                        <g>
                            <g>
                                <path d="M455.47,427.779L56.53,427.779C48.246,427.779 41.53,421.063 41.53,412.779L41.53,98.513C41.53,90.229 48.246,83.513 56.53,83.513L455.47,83.513C463.754,83.513 470.47,90.229 470.47,98.513L470.47,412.779C470.47,421.064 463.755,427.779 455.47,427.779Z" style="fill:white;fill-rule:nonzero;"/>
                                <g>
                                    <g>
                                        <path d="M428.79,427.779L83.21,427.779L83.21,221.66C83.21,216.137 87.687,211.66 93.21,211.66L418.79,211.66C424.313,211.66 428.79,216.137 428.79,221.66L428.79,427.779Z" style="fill:white;fill-rule:nonzero;"/>
                                        <rect x="83.21" y="369.222" width="345.579" height="58.558" style="fill:rgb(255,199,153);fill-rule:nonzero;"/>
                                        <g>
                                            <g>
                                                <circle cx="354.935" cy="303.831" r="33.651" style="fill:rgb(255,199,153);"/>
                                                <path d="M371.552,304.969C371.552,295.809 364.092,288.359 354.932,288.359C345.772,288.359 338.322,295.809 338.322,304.969C338.322,309.489 340.142,313.589 343.072,316.589C340.142,319.579 338.322,323.679 338.322,328.199L338.322,333.099C341.392,334.839 344.752,336.119 348.322,336.829L348.322,328.199C348.322,324.549 351.292,321.589 354.932,321.589C358.582,321.589 361.552,324.549 361.552,328.199L361.552,336.829C365.122,336.119 368.482,334.839 371.552,333.099L371.552,328.199C371.552,323.679 369.732,319.579 366.792,316.589C369.732,313.589 371.552,309.489 371.552,304.969ZM354.932,311.589C351.292,311.589 348.322,308.619 348.322,304.969C348.322,301.329 351.292,298.359 354.932,298.359C358.582,298.359 361.552,301.329 361.552,304.969C361.552,308.619 358.582,311.589 354.932,311.589Z" style="fill:rgb(255,117,2);fill-rule:nonzero;"/>
                                            </g>
                                            <g>
                                                <circle cx="157.065" cy="303.831" r="33.651" style="fill:rgb(255,199,153);"/>
                                                <path d="M173.682,304.969C173.682,295.809 166.222,288.359 157.062,288.359C147.902,288.359 140.452,295.809 140.452,304.969C140.452,309.489 142.272,313.589 145.202,316.589C142.272,319.579 140.452,323.679 140.452,328.199L140.452,333.099C143.522,334.839 146.882,336.119 150.452,336.829L150.452,328.199C150.452,324.549 153.422,321.589 157.062,321.589C160.712,321.589 163.682,324.549 163.682,328.199L163.682,336.829C167.252,336.119 170.612,334.839 173.682,333.099L173.682,328.199C173.682,323.679 171.862,319.579 168.922,316.589C171.862,313.589 173.682,309.489 173.682,304.969ZM157.062,311.589C153.422,311.589 150.452,308.619 150.452,304.969C150.452,301.329 153.422,298.359 157.062,298.359C160.712,298.359 163.682,301.329 163.682,304.969C163.682,308.619 160.712,311.589 157.062,311.589Z" style="fill:rgb(255,117,2);fill-rule:nonzero;"/>
                                            </g>
                                        </g>
                                        <path d="M428.79,246.173L83.21,246.173L83.21,221.66C83.21,216.137 87.687,211.66 93.21,211.66L418.79,211.66C424.313,211.66 428.79,216.137 428.79,221.66L428.79,246.173Z" style="fill:rgb(255,199,153);fill-rule:nonzero;"/>
                                    </g>
                                </g>
                                <path d="M470.47,152.826L470.47,98.513C470.47,90.229 463.754,83.513 455.47,83.513L56.53,83.513C48.246,83.513 41.53,90.229 41.53,98.513L41.53,152.826L470.47,152.826Z" style="fill:rgb(255,199,153);fill-rule:nonzero;"/>
                            </g>
                            <g>
                                <g>
                                    <circle cx="85.623" cy="120.414" r="10.901" style="fill:white;"/>
                                    <circle cx="120.424" cy="120.414" r="10.901" style="fill:white;"/>
                                    <circle cx="155.224" cy="120.414" r="10.901" style="fill:white;"/>
                                </g>
                                <path d="M432.278,132.661L296.119,132.661L296.119,108.165L432.277,108.165C435.038,108.165 437.277,110.404 437.277,113.165L437.277,127.661C437.278,130.423 435.039,132.661 432.278,132.661Z" style="fill:white;fill-rule:nonzero;"/>
                                <path d="M296.789,108.477C291.503,103.191 282.902,103.191 277.616,108.477C272.33,113.763 272.33,122.364 277.616,127.65C281.653,131.687 287.619,132.63 292.569,130.502L296.917,134.85C298.869,136.802 302.036,136.802 303.988,134.85C305.941,132.898 305.941,129.731 303.988,127.779L299.64,123.431C301.769,118.48 300.826,112.514 296.789,108.477ZM284.687,115.548C286.074,114.161 288.331,114.161 289.718,115.548C291.105,116.935 291.105,119.192 289.718,120.579C288.331,121.966 286.074,121.966 284.687,120.579C283.3,119.192 283.3,116.935 284.687,115.548Z" style="fill:rgb(255,117,2);fill-rule:nonzero;"/>
                            </g>
                        </g>
                        <g>
                            <path d="M428.79,432.779L83.21,432.779C80.449,432.779 78.21,430.541 78.21,427.779L78.21,221.66C78.21,213.389 84.939,206.66 93.21,206.66L418.79,206.66C427.061,206.66 433.79,213.389 433.79,221.66L433.79,427.779C433.79,430.541 431.552,432.779 428.79,432.779ZM88.21,422.779L423.79,422.779L423.79,221.66C423.79,218.903 421.547,216.66 418.79,216.66L93.21,216.66C90.453,216.66 88.21,218.903 88.21,221.66L88.21,422.779Z" style="fill:rgb(255,117,2);fill-rule:nonzero;"/>
                        </g>
                        <g>
                            <g>
                                <path d="M328.79,461.728L183.21,461.728C177.687,461.728 173.21,457.251 173.21,451.728L173.21,195.608C173.21,190.085 177.687,185.608 183.21,185.608L328.79,185.608C334.313,185.608 338.79,190.085 338.79,195.608L338.79,451.727C338.79,457.251 334.313,461.728 328.79,461.728Z" style="fill:white;fill-rule:nonzero;"/>
                                <g>
                                    <path d="M173.21,380.668L173.21,451.727C173.21,457.25 177.687,461.727 183.21,461.727L328.79,461.727C334.313,461.727 338.79,457.25 338.79,451.727L338.79,380.668L173.21,380.668Z" style="fill:rgb(255,199,153);fill-rule:nonzero;"/>
                                    <path d="M338.79,217.121L173.21,217.121L173.21,195.608C173.21,190.085 177.687,185.608 183.21,185.608L328.79,185.608C334.313,185.608 338.79,190.085 338.79,195.608L338.79,217.121Z" style="fill:rgb(255,199,153);fill-rule:nonzero;"/>
                                </g>
                            </g>
                            <path d="M455.471,78.513L56.53,78.513C45.502,78.513 36.53,87.485 36.53,98.513L36.53,412.779C36.53,423.807 45.502,432.779 56.53,432.779L168.21,432.779L168.21,451.728C168.21,459.999 174.939,466.728 183.21,466.728L328.79,466.728C337.061,466.728 343.79,459.999 343.79,451.728L343.79,432.779L455.471,432.779C466.499,432.779 475.471,423.807 475.471,412.779L475.471,98.513C475.471,87.485 466.499,78.513 455.471,78.513ZM333.79,451.728C333.79,454.485 331.547,456.728 328.79,456.728L183.21,456.728C180.453,456.728 178.21,454.485 178.21,451.728L178.21,195.608C178.21,192.851 180.453,190.608 183.21,190.608L328.79,190.608C331.547,190.608 333.79,192.851 333.79,195.608L333.79,451.728ZM465.471,412.779C465.471,418.293 460.985,422.779 455.471,422.779L343.79,422.779L343.79,195.608C343.79,187.337 337.061,180.608 328.79,180.608L183.21,180.608C174.939,180.608 168.21,187.337 168.21,195.608L168.21,422.779L56.53,422.779C51.016,422.779 46.53,418.293 46.53,412.779L46.53,98.513C46.53,92.999 51.016,88.513 56.53,88.513L455.471,88.513C460.985,88.513 465.471,92.999 465.471,98.513L465.471,412.779Z" style="fill:rgb(255,117,2);fill-rule:nonzero;"/>
                        </g>
                        <g>
                            <circle cx="256" cy="283.297" r="33.651" style="fill:rgb(255,199,153);"/>
                            <path d="M272.617,284.435C272.617,275.275 265.157,267.825 255.997,267.825C246.837,267.825 239.387,275.275 239.387,284.435C239.387,288.955 241.207,293.055 244.137,296.055C241.207,299.045 239.387,303.145 239.387,307.665L239.387,312.565C242.457,314.305 245.817,315.585 249.387,316.295L249.387,307.665C249.387,304.015 252.357,301.055 255.997,301.055C259.647,301.055 262.617,304.015 262.617,307.665L262.617,316.295C266.187,315.585 269.547,314.305 272.617,312.565L272.617,307.665C272.617,303.145 270.797,299.045 267.857,296.055C270.797,293.055 272.617,288.955 272.617,284.435ZM255.997,291.055C252.357,291.055 249.387,288.085 249.387,284.435C249.387,280.795 252.357,277.825 255.997,277.825C259.647,277.825 262.617,280.795 262.617,284.435C262.617,288.085 259.647,291.055 255.997,291.055Z" style="fill:rgb(255,117,2);fill-rule:nonzero;"/>
                        </g>
                        <g>
                            <g>
                                <path d="M285.84,344.939L226.16,344.939C223.399,344.939 221.16,342.7 221.16,339.939C221.16,337.178 223.399,334.939 226.16,334.939L285.841,334.939C288.602,334.939 290.841,337.178 290.841,339.939C290.84,342.701 288.602,344.939 285.84,344.939Z" style="fill:rgb(255,117,2);fill-rule:nonzero;"/>
                            </g>
                            <g>
                                <path d="M285.84,408.682L226.16,408.682C223.399,408.682 221.16,406.443 221.16,403.682C221.16,400.921 223.399,398.682 226.16,398.682L285.841,398.682C288.602,398.682 290.841,400.921 290.841,403.682C290.841,406.443 288.602,408.682 285.84,408.682Z" style="fill:rgb(255,117,2);fill-rule:nonzero;"/>
                            </g>
                            <g>
                                <path d="M285.84,427.779L226.16,427.779C223.399,427.779 221.16,425.54 221.16,422.779C221.16,420.018 223.399,417.779 226.16,417.779L285.841,417.779C288.602,417.779 290.841,420.018 290.841,422.779C290.84,425.541 288.602,427.779 285.84,427.779Z" style="fill:rgb(255,117,2);fill-rule:nonzero;"/>
                            </g>
                            <g>
                                <path d="M246.84,362.396L226.16,362.396C223.399,362.396 221.16,360.157 221.16,357.396C221.16,354.635 223.399,352.396 226.16,352.396L246.841,352.396C249.602,352.396 251.841,354.635 251.841,357.396C251.84,360.157 249.602,362.396 246.84,362.396Z" style="fill:rgb(255,117,2);fill-rule:nonzero;"/>
                            </g>
                            <g>
                                <g>
                                    <path d="M314.793,237.992L303.112,237.992C300.351,237.992 298.112,235.753 298.112,232.992C298.112,230.231 300.351,227.992 303.112,227.992L314.793,227.992C317.554,227.992 319.793,230.231 319.793,232.992C319.793,235.753 317.555,237.992 314.793,237.992Z" style="fill:rgb(255,117,2);fill-rule:nonzero;"/>
                                </g>
                                <g>
                                    <path d="M314.793,253.477L303.112,253.477C300.351,253.477 298.112,251.238 298.112,248.477C298.112,245.716 300.351,243.477 303.112,243.477L314.793,243.477C317.554,243.477 319.793,245.716 319.793,248.477C319.793,251.239 317.555,253.477 314.793,253.477Z" style="fill:rgb(255,117,2);fill-rule:nonzero;"/>
                                </g>
                            </g>
                        </g>
                        <g>
                            <path d="M203.01,232.992C203.01,235.754 200.771,237.994 198.008,237.994C195.246,237.994 193.006,235.755 193.006,232.992C193.006,230.23 195.245,227.99 198.008,227.99C200.771,227.99 203.01,230.229 203.01,232.992Z" style="fill:rgb(255,117,2);fill-rule:nonzero;"/>
                        </g>
                    </g>
                </g>
            </g>
        </g>
        <g id="_003-app-design.svg1" serif:id="003-app-design.svg">
        </g>
    </g>
</svg>
