<?xml version="1.0" encoding="UTF-8" standalone="no"?>
<!DOCTYPE svg PUBLIC "-//W3C//DTD SVG 1.1//EN" "http://www.w3.org/Graphics/SVG/1.1/DTD/svg11.dtd">
<svg width="100%" height="100%" viewBox="0 0 500 500" version="1.1" xmlns="http://www.w3.org/2000/svg" xmlns:xlink="http://www.w3.org/1999/xlink" xml:space="preserve" xmlns:serif="http://www.serif.com/" style="fill-rule:evenodd;clip-rule:evenodd;stroke-linejoin:round;stroke-miterlimit:2;">
    <g transform="matrix(0.988353,0,0,0.988353,234.091,245.736)">
        <g id="_001-code.svg" serif:id="001-code.svg" transform="matrix(1,0,0,1,-256,-256)">
            <path d="M238.435,64.407C208.291,87.936 101.055,150.499 88.803,191.268C76.551,232.037 148.764,266.518 164.92,309.022C181.076,351.526 153.969,422.98 185.738,446.292C217.508,469.604 322.9,457.569 355.537,448.895C375.036,443.712 368.353,409.498 381.56,394.247C399.776,373.211 457.894,354.128 464.834,322.684C471.773,291.239 425.257,234.748 423.197,205.581C421.673,184.007 457.352,166.655 452.473,147.68C447.593,128.705 417.667,99.754 393.921,91.731C370.175,83.707 330.707,106.477 309.997,99.537C289.83,92.78 281.589,55.949 269.662,50.094C259.383,45.048 247.461,57.361 238.435,64.407Z" style="fill:rgb(255,223,196);"/>
            <g transform="matrix(0.725255,0,0,0.725255,70.3346,70.3344)">
                <path d="M439.446,85.511L439.446,399.569C439.446,407.845 432.73,414.561 424.454,414.561L204.572,414.561C196.296,414.561 189.58,407.845 189.58,399.569L189.58,85.511C189.58,77.235 196.296,70.519 204.572,70.519L424.454,70.519C432.73,70.519 439.446,77.235 439.446,85.511Z" style="fill:rgb(255,199,153);fill-rule:nonzero;"/>
                <path d="M189.58,375.87L189.58,399.567C189.58,407.843 196.296,414.559 204.572,414.559L424.454,414.559C432.73,414.559 439.446,407.843 439.446,399.567L439.446,375.87L189.58,375.87Z" style="fill:white;fill-rule:nonzero;"/>
                <path d="M244.133,70.516L244.133,414.559L204.572,414.559C196.3,414.559 189.578,407.847 189.578,399.565L189.578,85.51C189.578,77.238 196.3,70.516 204.572,70.516L244.133,70.516Z" style="fill:white;fill-rule:nonzero;"/>
                <path d="M226.208,189.438L226.208,260.007C226.208,264.158 222.847,267.529 218.686,267.529L189.578,267.529L189.578,181.906L218.686,181.906C222.848,181.906 226.208,185.277 226.208,189.438Z" style="fill:rgb(255,199,153);fill-rule:nonzero;"/>
                <path d="M439.446,118.664L439.446,85.511C439.446,77.231 432.734,70.519 424.454,70.519L204.572,70.519C196.292,70.519 189.58,77.231 189.58,85.511L189.58,118.665L439.446,118.664Z" style="fill:white;fill-rule:nonzero;"/>
                <g>
                    <path d="M319.469,231.235L303.733,231.235C301.117,231.235 298.781,233.147 298.533,235.751C298.248,238.738 300.589,241.252 303.518,241.252L319.469,241.252C322.235,241.252 324.477,239.01 324.477,236.244C324.477,233.478 322.235,231.235 319.469,231.235Z" style="fill:rgb(255,117,2);fill-rule:nonzero;"/>
                    <path d="M379.909,231.235L342.489,231.235C339.723,231.235 337.481,233.477 337.481,236.243C337.481,239.009 339.723,241.251 342.489,241.251L380.124,241.251C383.053,241.251 385.394,238.737 385.109,235.75C384.861,233.147 382.525,231.235 379.909,231.235Z" style="fill:rgb(255,117,2);fill-rule:nonzero;"/>
                    <path d="M355.479,252.205L303.734,252.205C301.118,252.205 298.783,254.117 298.534,256.721C298.249,259.708 300.59,262.222 303.519,262.222L355.48,262.222C358.246,262.222 360.488,259.98 360.488,257.214C360.487,254.447 358.245,252.205 355.479,252.205Z" style="fill:rgb(255,117,2);fill-rule:nonzero;"/>
                    <path d="M409.917,252.205L378.498,252.205C375.732,252.205 373.49,254.447 373.49,257.213C373.49,259.979 375.732,262.221 378.498,262.221L410.132,262.221C413.061,262.221 415.402,259.707 415.117,256.72C414.869,254.117 412.533,252.205 409.917,252.205Z" style="fill:rgb(255,117,2);fill-rule:nonzero;"/>
                    <path d="M340.474,273.174L303.733,273.174C301.117,273.174 298.781,275.086 298.533,277.69C298.248,280.677 300.589,283.191 303.518,283.191L340.475,283.191C343.241,283.191 345.483,280.949 345.483,278.183C345.483,275.417 343.241,273.174 340.474,273.174Z" style="fill:rgb(255,117,2);fill-rule:nonzero;"/>
                    <path d="M379.909,273.174L363.495,273.174C360.729,273.174 358.487,275.416 358.487,278.182C358.487,280.948 360.729,283.19 363.495,283.19L380.125,283.19C383.054,283.19 385.395,280.676 385.11,277.689C384.861,275.087 382.525,273.174 379.909,273.174Z" style="fill:rgb(255,117,2);fill-rule:nonzero;"/>
                    <path d="M409.918,294.145L348.491,294.145C345.725,294.145 343.483,296.387 343.483,299.153C343.483,301.919 345.725,304.161 348.491,304.161L410.133,304.161C413.062,304.161 415.403,301.647 415.118,298.66C414.869,296.057 412.533,294.145 409.918,294.145Z" style="fill:rgb(255,117,2);fill-rule:nonzero;"/>
                    <path d="M325.47,294.145L303.733,294.145C301.117,294.145 298.781,296.057 298.533,298.661C298.248,301.648 300.589,304.162 303.518,304.162L325.47,304.162C328.236,304.162 330.478,301.92 330.478,299.154C330.479,296.387 328.236,294.145 325.47,294.145Z" style="fill:rgb(255,117,2);fill-rule:nonzero;"/>
                    <path d="M290.461,196.374L273.725,196.374C271.109,196.374 268.773,198.286 268.525,200.89C268.24,203.877 270.581,206.391 273.51,206.391L290.461,206.391C293.227,206.391 295.47,204.149 295.47,201.383C295.469,198.617 293.227,196.374 290.461,196.374Z" style="fill:rgb(255,117,2);fill-rule:nonzero;"/>
                    <path d="M379.909,196.374L314.815,196.374C312.049,196.374 309.806,198.616 309.806,201.382C309.806,204.148 312.048,206.39 314.815,206.39L380.124,206.39C383.053,206.39 385.394,203.876 385.109,200.889C384.861,198.287 382.525,196.374 379.909,196.374Z" style="fill:rgb(255,117,2);fill-rule:nonzero;"/>
                    <path d="M290.461,331.976L273.725,331.976C271.109,331.976 268.773,333.888 268.525,336.492C268.24,339.479 270.581,341.993 273.51,341.993L290.461,341.993C293.227,341.993 295.47,339.751 295.47,336.985C295.469,334.217 293.227,331.976 290.461,331.976Z" style="fill:rgb(255,117,2);fill-rule:nonzero;"/>
                    <path d="M379.909,331.976L314.815,331.976C312.049,331.976 309.806,334.218 309.806,336.985C309.806,339.751 312.048,341.993 314.815,341.993L380.124,341.993C383.053,341.993 385.394,339.479 385.109,336.492C384.861,333.888 382.525,331.976 379.909,331.976Z" style="fill:rgb(255,117,2);fill-rule:nonzero;"/>
                </g>
                <path d="M218.687,253.362L110.277,253.362C106.121,253.362 102.752,249.993 102.752,245.837L102.752,175.268C102.752,171.112 106.121,167.743 110.277,167.743L218.687,167.743C222.843,167.743 226.212,171.112 226.212,175.268L226.212,245.837C226.212,249.993 222.843,253.362 218.687,253.362Z" style="fill:white;fill-rule:nonzero;"/>
                <path d="M141.09,227.596C139.81,227.596 138.529,227.107 137.553,226.131L125.512,214.09C123.558,212.136 123.558,208.969 125.512,207.015L137.553,194.974C139.505,193.021 142.675,193.021 144.627,194.974C146.581,196.928 146.581,200.095 144.627,202.049L136.124,210.552L144.627,219.055C146.581,221.009 146.581,224.176 144.627,226.13C143.651,227.108 142.37,227.596 141.09,227.596Z" style="fill:rgb(255,117,2);fill-rule:nonzero;"/>
                <path d="M187.874,193.51C189.154,193.51 190.435,193.999 191.411,194.975L203.452,207.016C205.406,208.97 205.406,212.137 203.452,214.091L191.41,226.131C189.458,228.084 186.288,228.084 184.336,226.131C182.382,224.177 182.382,221.01 184.336,219.056L192.839,210.553L184.336,202.05C182.382,200.096 182.382,196.929 184.336,194.975C185.313,193.999 186.594,193.51 187.874,193.51Z" style="fill:rgb(255,117,2);fill-rule:nonzero;"/>
                <path d="M157.678,227.597C156.845,227.597 156,227.388 155.224,226.95C152.818,225.591 151.969,222.54 153.328,220.134L166.926,196.053C168.284,193.648 171.336,192.799 173.741,194.157C176.147,195.516 176.996,198.567 175.637,200.973L162.039,225.054C161.119,226.682 159.424,227.597 157.678,227.597Z" style="fill:rgb(255,117,2);fill-rule:nonzero;"/>
                <path d="M332.479,464.5L85.65,464.5C80.126,464.5 75.647,460.022 75.647,454.497L75.647,385.873C75.647,380.349 80.125,375.87 85.65,375.87L332.479,375.87C338.003,375.87 342.482,380.348 342.482,385.873L342.482,454.497C342.482,460.021 338.004,464.5 332.479,464.5Z" style="fill:white;fill-rule:nonzero;"/>
                <g>
                    <path d="M227.641,89.519C224.88,89.519 222.641,91.757 222.641,94.519L222.641,94.664C222.641,97.426 224.88,99.664 227.641,99.664C230.402,99.664 232.641,97.426 232.641,94.664L232.641,94.519C232.641,91.758 230.403,89.519 227.641,89.519Z" style="fill:rgb(255,117,2);fill-rule:nonzero;"/>
                    <path d="M246.956,89.519C244.195,89.519 241.956,91.757 241.956,94.519L241.956,94.664C241.956,97.426 244.195,99.664 246.956,99.664C249.717,99.664 251.956,97.426 251.956,94.664L251.956,94.519C251.956,91.758 249.717,89.519 246.956,89.519Z" style="fill:rgb(255,117,2);fill-rule:nonzero;"/>
                    <path d="M266.27,89.519C263.508,89.519 261.27,91.757 261.27,94.519L261.27,94.664C261.27,97.426 263.508,99.664 266.27,99.664C269.032,99.664 271.27,97.426 271.27,94.664L271.27,94.519C271.27,91.758 269.032,89.519 266.27,89.519Z" style="fill:rgb(255,117,2);fill-rule:nonzero;"/>
                    <path d="M424.454,65.518L204.572,65.518C193.548,65.518 184.58,74.487 184.58,85.51L184.58,140.212C184.58,142.974 186.819,145.212 189.58,145.212C192.341,145.212 194.58,142.974 194.58,140.212L194.58,123.663L434.446,123.663L434.446,399.565C434.446,405.074 429.964,409.556 424.454,409.556L347.482,409.556L347.482,385.872C347.482,377.6 340.752,370.869 332.479,370.869L217.128,370.869C214.367,370.869 212.128,373.107 212.128,375.869C212.128,378.631 214.367,380.869 217.128,380.869L332.48,380.869C335.239,380.869 337.483,383.113 337.483,385.872L337.483,454.496C337.483,457.255 335.239,459.499 332.48,459.499L85.65,459.499C82.891,459.499 80.647,457.255 80.647,454.496L80.647,385.872C80.647,383.113 82.891,380.869 85.65,380.869L189.58,380.869C192.341,380.869 194.58,378.631 194.58,375.869L194.58,258.362L218.687,258.362C225.593,258.362 231.211,252.744 231.211,245.838L231.211,175.269C231.211,168.363 225.592,162.745 218.687,162.745L110.277,162.745C103.371,162.745 97.752,168.363 97.752,175.269L97.752,205.554L92.652,205.554C80.519,205.554 70.647,215.425 70.647,227.558L70.647,260.136C70.647,272.27 80.519,282.141 92.652,282.141L132.615,282.141C139.267,282.141 144.678,287.553 144.678,294.204C144.678,300.855 139.266,306.267 132.615,306.267L92.652,306.267C80.519,306.267 70.647,316.138 70.647,328.272C70.647,340.406 80.519,350.277 92.652,350.277L130.793,350.277C137.413,350.277 142.798,355.662 142.798,362.281L142.798,370.871L85.65,370.871C77.378,370.871 70.647,377.601 70.647,385.874L70.647,454.498C70.647,462.77 77.377,469.501 85.65,469.501L332.479,469.501C340.751,469.501 347.482,462.771 347.482,454.498L347.482,419.558L424.454,419.558C435.477,419.558 444.446,410.59 444.446,399.567L444.446,85.511C444.446,74.487 435.477,65.518 424.454,65.518ZM107.752,175.268C107.752,173.876 108.885,172.744 110.277,172.744L218.688,172.744C220.08,172.744 221.212,173.877 221.212,175.268L221.212,245.837C221.212,247.229 220.08,248.361 218.688,248.361L110.277,248.361C108.885,248.361 107.752,247.228 107.752,245.837L107.752,175.268ZM130.793,340.277L92.652,340.277C86.032,340.277 80.647,334.891 80.647,328.272C80.647,321.653 86.032,316.267 92.652,316.267L132.615,316.267C144.781,316.267 154.678,306.37 154.678,294.204C154.678,282.038 144.781,272.141 132.615,272.141L92.652,272.141C86.032,272.141 80.647,266.755 80.647,260.136L80.647,227.558C80.647,220.939 86.032,215.554 92.652,215.554L97.752,215.554L97.752,245.838C97.752,252.744 103.371,258.362 110.277,258.362L184.58,258.362L184.58,370.871L152.798,370.871L152.798,362.281C152.798,350.148 142.927,340.277 130.793,340.277ZM194.58,113.664L194.58,85.511C194.58,80.001 199.062,75.519 204.572,75.519L424.454,75.519C429.964,75.519 434.446,80.001 434.446,85.511L434.446,113.664L194.58,113.664Z" style="fill:rgb(255,117,2);fill-rule:nonzero;"/>
                    <path d="M224.83,291.928C224.83,289.166 222.591,286.928 219.83,286.928C217.069,286.928 214.83,289.166 214.83,291.928L214.83,292.074C214.83,294.836 217.069,297.074 219.83,297.074C222.591,297.074 224.83,294.836 224.83,292.074L224.83,291.928Z" style="fill:rgb(255,117,2);fill-rule:nonzero;"/>
                    <path d="M219.83,332.273C217.069,332.273 214.83,334.511 214.83,337.273L214.83,337.419C214.83,340.181 217.069,342.419 219.83,342.419C222.591,342.419 224.83,340.181 224.83,337.419L224.83,337.273C224.83,334.513 222.591,332.273 219.83,332.273Z" style="fill:rgb(255,117,2);fill-rule:nonzero;"/>
                    <path d="M103.785,400.826C103.785,398.064 101.546,395.826 98.785,395.826C96.024,395.826 93.785,398.064 93.785,400.826L93.785,400.941C93.785,403.703 96.024,405.941 98.785,405.941C101.546,405.941 103.785,403.703 103.785,400.941L103.785,400.826Z" style="fill:rgb(255,117,2);fill-rule:nonzero;"/>
                    <path d="M128.291,400.826C128.291,398.064 126.052,395.826 123.291,395.826C120.53,395.826 118.291,398.064 118.291,400.826L118.291,400.941C118.291,403.703 120.53,405.941 123.291,405.941C126.052,405.941 128.291,403.703 128.291,400.941L128.291,400.826Z" style="fill:rgb(255,117,2);fill-rule:nonzero;"/>
                    <path d="M147.798,405.941C150.559,405.941 152.798,403.703 152.798,400.941L152.798,400.826C152.798,398.064 150.559,395.826 147.798,395.826C145.037,395.826 142.798,398.064 142.798,400.826L142.798,400.941C142.798,403.703 145.037,405.941 147.798,405.941Z" style="fill:rgb(255,117,2);fill-rule:nonzero;"/>
                    <path d="M177.305,400.941L177.305,400.826C177.305,398.064 175.066,395.826 172.305,395.826C169.544,395.826 167.305,398.064 167.305,400.826L167.305,400.941C167.305,403.703 169.544,405.941 172.305,405.941C175.066,405.941 177.305,403.703 177.305,400.941Z" style="fill:rgb(255,117,2);fill-rule:nonzero;"/>
                    <path d="M201.811,400.941L201.811,400.826C201.811,398.064 199.572,395.826 196.811,395.826C194.05,395.826 191.811,398.064 191.811,400.826L191.811,400.941C191.811,403.703 194.05,405.941 196.811,405.941C199.572,405.941 201.811,403.703 201.811,400.941Z" style="fill:rgb(255,117,2);fill-rule:nonzero;"/>
                    <path d="M226.318,400.941L226.318,400.826C226.318,398.064 224.079,395.826 221.318,395.826C218.557,395.826 216.318,398.064 216.318,400.826L216.318,400.941C216.318,403.703 218.557,405.941 221.318,405.941C224.079,405.941 226.318,403.703 226.318,400.941Z" style="fill:rgb(255,117,2);fill-rule:nonzero;"/>
                    <path d="M250.825,400.941L250.825,400.826C250.825,398.064 248.586,395.826 245.825,395.826C243.064,395.826 240.825,398.064 240.825,400.826L240.825,400.941C240.825,403.703 243.064,405.941 245.825,405.941C248.586,405.941 250.825,403.703 250.825,400.941Z" style="fill:rgb(255,117,2);fill-rule:nonzero;"/>
                    <path d="M270.331,405.941C273.093,405.941 275.331,403.703 275.331,400.941L275.331,400.826C275.331,398.064 273.093,395.826 270.331,395.826C267.569,395.826 265.331,398.064 265.331,400.826L265.331,400.941C265.331,403.703 267.569,405.941 270.331,405.941Z" style="fill:rgb(255,117,2);fill-rule:nonzero;"/>
                    <path d="M294.838,405.941C297.6,405.941 299.838,403.703 299.838,400.941L299.838,400.826C299.838,398.064 297.6,395.826 294.838,395.826C292.076,395.826 289.838,398.064 289.838,400.826L289.838,400.941C289.838,403.703 292.076,405.941 294.838,405.941Z" style="fill:rgb(255,117,2);fill-rule:nonzero;"/>
                    <path d="M319.345,405.941C322.107,405.941 324.345,403.703 324.345,400.941L324.345,400.826C324.345,398.064 322.107,395.826 319.345,395.826C316.583,395.826 314.345,398.064 314.345,400.826L314.345,400.941C314.345,403.703 316.583,405.941 319.345,405.941Z" style="fill:rgb(255,117,2);fill-rule:nonzero;"/>
                    <path d="M106.038,420.128L106.038,420.243C106.038,423.005 108.277,425.243 111.038,425.243C113.799,425.243 116.038,423.005 116.038,420.243L116.038,420.128C116.038,417.366 113.799,415.128 111.038,415.128C108.277,415.128 106.038,417.366 106.038,420.128Z" style="fill:rgb(255,117,2);fill-rule:nonzero;"/>
                    <path d="M130.545,420.128L130.545,420.243C130.545,423.005 132.784,425.243 135.545,425.243C138.306,425.243 140.545,423.005 140.545,420.243L140.545,420.128C140.545,417.366 138.306,415.128 135.545,415.128C132.784,415.128 130.545,417.366 130.545,420.128Z" style="fill:rgb(255,117,2);fill-rule:nonzero;"/>
                    <path d="M165.052,420.243L165.052,420.128C165.052,417.366 162.813,415.128 160.052,415.128C157.291,415.128 155.052,417.366 155.052,420.128L155.052,420.243C155.052,423.005 157.291,425.243 160.052,425.243C162.813,425.243 165.052,423.005 165.052,420.243Z" style="fill:rgb(255,117,2);fill-rule:nonzero;"/>
                    <path d="M189.558,420.243L189.558,420.128C189.558,417.366 187.319,415.128 184.558,415.128C181.797,415.128 179.558,417.366 179.558,420.128L179.558,420.243C179.558,423.005 181.797,425.243 184.558,425.243C187.319,425.243 189.558,423.005 189.558,420.243Z" style="fill:rgb(255,117,2);fill-rule:nonzero;"/>
                    <path d="M209.065,415.128C206.304,415.128 204.065,417.366 204.065,420.128L204.065,420.243C204.065,423.005 206.304,425.243 209.065,425.243C211.826,425.243 214.065,423.005 214.065,420.243L214.065,420.128C214.065,417.366 211.826,415.128 209.065,415.128Z" style="fill:rgb(255,117,2);fill-rule:nonzero;"/>
                    <path d="M238.572,420.243L238.572,420.128C238.572,417.366 236.333,415.128 233.572,415.128C230.811,415.128 228.572,417.366 228.572,420.128L228.572,420.243C228.572,423.005 230.811,425.243 233.572,425.243C236.333,425.243 238.572,423.005 238.572,420.243Z" style="fill:rgb(255,117,2);fill-rule:nonzero;"/>
                    <path d="M263.078,420.243L263.078,420.128C263.078,417.366 260.84,415.128 258.078,415.128C255.317,415.128 253.078,417.366 253.078,420.128L253.078,420.243C253.078,423.005 255.317,425.243 258.078,425.243C260.84,425.243 263.078,423.005 263.078,420.243Z" style="fill:rgb(255,117,2);fill-rule:nonzero;"/>
                    <path d="M287.585,420.243L287.585,420.128C287.585,417.366 285.347,415.128 282.585,415.128C279.823,415.128 277.585,417.366 277.585,420.128L277.585,420.243C277.585,423.005 279.823,425.243 282.585,425.243C285.347,425.243 287.585,423.005 287.585,420.243Z" style="fill:rgb(255,117,2);fill-rule:nonzero;"/>
                    <path d="M312.092,420.243L312.092,420.128C312.092,417.366 309.854,415.128 307.092,415.128C304.33,415.128 302.092,417.366 302.092,420.128L302.092,420.243C302.092,423.005 304.33,425.243 307.092,425.243C309.854,425.243 312.092,423.005 312.092,420.243Z" style="fill:rgb(255,117,2);fill-rule:nonzero;"/>
                    <path d="M98.785,434.429C96.024,434.429 93.785,436.667 93.785,439.429L93.785,439.544C93.785,442.306 96.024,444.544 98.785,444.544C101.546,444.544 103.785,442.306 103.785,439.544L103.785,439.429C103.785,436.667 101.546,434.429 98.785,434.429Z" style="fill:rgb(255,117,2);fill-rule:nonzero;"/>
                    <path d="M123.291,434.429C120.53,434.429 118.291,436.667 118.291,439.429L118.291,439.544C118.291,442.306 120.53,444.544 123.291,444.544C126.052,444.544 128.291,442.306 128.291,439.544L128.291,439.429C128.291,436.667 126.053,434.429 123.291,434.429Z" style="fill:rgb(255,117,2);fill-rule:nonzero;"/>
                    <path d="M142.798,439.544C142.798,442.306 145.037,444.544 147.798,444.544L245.824,444.544C248.585,444.544 250.824,442.306 250.824,439.544C250.824,436.782 248.585,434.544 245.824,434.544L147.798,434.544C145.037,434.544 142.798,436.782 142.798,439.544Z" style="fill:rgb(255,117,2);fill-rule:nonzero;"/>
                    <path d="M265.331,439.544C265.331,442.306 267.569,444.544 270.331,444.544C273.093,444.544 275.331,442.306 275.331,439.544L275.331,439.429C275.331,436.667 273.093,434.429 270.331,434.429C267.569,434.429 265.331,436.667 265.331,439.429L265.331,439.544Z" style="fill:rgb(255,117,2);fill-rule:nonzero;"/>
                    <path d="M289.838,439.544C289.838,442.306 292.076,444.544 294.838,444.544C297.6,444.544 299.838,442.306 299.838,439.544L299.838,439.429C299.838,436.667 297.6,434.429 294.838,434.429C292.076,434.429 289.838,436.667 289.838,439.429L289.838,439.544Z" style="fill:rgb(255,117,2);fill-rule:nonzero;"/>
                    <path d="M314.345,439.544C314.345,442.306 316.583,444.544 319.345,444.544C322.107,444.544 324.345,442.306 324.345,439.544L324.345,439.429C324.345,436.667 322.107,434.429 319.345,434.429C316.583,434.429 314.345,436.667 314.345,439.429L314.345,439.544Z" style="fill:rgb(255,117,2);fill-rule:nonzero;"/>
                    <rect x="241.956" y="370.871" width="195.801" height="10" style="fill:rgb(255,117,2);fill-rule:nonzero;"/>
                </g>
                <g transform="matrix(1.71413,-0.716691,0.716691,1.71413,-534.617,55.9657)">
                    <path d="M402.871,117.701L406.063,125.77L414.688,128.755L406.063,131.741L402.871,139.81L399.68,131.741L391.054,128.755L399.68,125.77L402.871,117.701Z" style="fill:rgb(255,199,153);"/>
                </g>
                <g transform="matrix(1.52327,0.0743446,-0.0743446,1.52327,-121.913,83.6078)">
                    <path d="M402.871,117.701L406.063,125.77L414.688,128.755L406.063,131.741L402.871,139.81L399.68,131.741L391.054,128.755L399.68,125.77L402.871,117.701Z" style="fill:rgb(255,199,153);"/>
                </g>
                <g transform="matrix(1.62125,-0.790698,0.790698,1.62125,-656.506,616.567)">
                    <path d="M402.871,117.701L406.063,125.77L414.688,128.755L406.063,131.741L402.871,139.81L399.68,131.741L391.054,128.755L399.68,125.77L402.871,117.701Z" style="fill:rgb(255,199,153);"/>
                </g>
                <g transform="matrix(0.755103,0,0,0.755103,-69.8179,-292.445)">
                    <circle cx="479.797" cy="439.136" r="12.361" style="fill:rgb(255,199,153);"/>
                </g>
                <g transform="matrix(1.22681,0,0,1.22681,-182.666,-33.5823)">
                    <circle cx="479.797" cy="439.136" r="12.361" style="fill:rgb(255,199,153);"/>
                </g>
                <g transform="matrix(0.95467,0,0,0.95467,-425.482,-211.665)">
                    <circle cx="479.797" cy="439.136" r="12.361" style="fill:rgb(255,199,153);"/>
                </g>
            </g>
        </g>
        <g id="_001-code.svg1" serif:id="001-code.svg">
        </g>
    </g>
</svg>
